<svg width="272" height="272" viewBox="0 0 272 272" fill="none" xmlns="http://www.w3.org/2000/svg">
<g filter="url(#filter0_f_1_1011)">
<rect x="40" y="40" width="192" height="192" rx="96" fill="#4F46E5" fill-opacity="0.1"/>
</g>
<g filter="url(#filter1_d_1_1011)">
<rect x="72" y="72" width="128" height="128" rx="64" fill="white" shape-rendering="crispEdges"/>
<rect x="72.5" y="72.5" width="127" height="127" rx="63.5" stroke="#4F46E5" stroke-opacity="0.2" shape-rendering="crispEdges"/>
<path d="M135.859 117.408C140.252 117.408 144.397 118.356 148.293 120.252C152.189 122.147 155.434 124.871 158.027 128.422C158.255 128.701 158.324 128.962 158.236 129.206C158.148 129.45 157.995 129.643 157.777 129.788C157.559 129.932 157.324 129.995 157.072 129.978C156.821 129.961 156.6 129.814 156.412 129.538C154.056 126.224 151.06 123.694 147.425 121.949C143.791 120.204 139.935 119.331 135.859 119.331C131.817 119.331 128.009 120.22 124.436 121.997C120.862 123.774 117.892 126.288 115.527 129.538C115.309 129.849 115.065 130.009 114.796 130.018C114.527 130.028 114.283 129.945 114.065 129.768C113.886 129.624 113.777 129.444 113.739 129.228C113.7 129.011 113.758 128.784 113.912 128.547C116.527 125.07 119.752 122.344 123.586 120.369C127.421 118.395 131.512 117.408 135.859 117.408ZM135.861 123.283C141.42 123.283 146.197 125.135 150.19 128.839C154.184 132.543 156.181 137.131 156.181 142.605C156.181 144.62 155.469 146.302 154.046 147.652C152.623 149.002 150.889 149.677 148.844 149.677C146.815 149.677 145.065 149.002 143.592 147.652C142.119 146.302 141.383 144.62 141.383 142.605C141.383 141.166 140.849 139.945 139.781 138.944C138.712 137.942 137.437 137.441 135.955 137.441C134.446 137.441 133.148 137.938 132.061 138.931C130.974 139.924 130.431 141.149 130.431 142.605C130.431 146.742 131.661 150.198 134.121 152.97C136.581 155.743 139.706 157.671 143.498 158.754C143.794 158.849 144.001 159.007 144.117 159.229C144.233 159.45 144.25 159.688 144.166 159.941C144.083 160.162 143.948 160.361 143.763 160.538C143.577 160.714 143.312 160.76 142.969 160.677C138.764 159.594 135.303 157.461 132.585 154.278C129.867 151.095 128.508 147.204 128.508 142.605C128.508 140.586 129.242 138.9 130.71 137.547C132.178 136.195 133.927 135.518 135.958 135.518C137.989 135.518 139.722 136.195 141.155 137.547C142.589 138.9 143.306 140.586 143.306 142.605C143.306 144.061 143.854 145.286 144.95 146.279C146.046 147.272 147.339 147.768 148.83 147.768C150.32 147.768 151.597 147.268 152.662 146.266C153.726 145.264 154.258 144.044 154.258 142.605C154.258 137.69 152.45 133.559 148.835 130.212C145.219 126.865 140.902 125.191 135.883 125.191C130.863 125.191 126.559 126.87 122.969 130.226C119.38 133.583 117.585 137.704 117.585 142.591C117.585 143.607 117.702 144.877 117.938 146.401C118.174 147.925 118.63 149.687 119.306 151.687C119.399 151.966 119.396 152.211 119.299 152.422C119.201 152.634 119.017 152.802 118.748 152.927C118.479 153.052 118.228 153.057 117.996 152.941C117.763 152.825 117.601 152.634 117.508 152.369C116.851 150.648 116.379 149.002 116.092 147.429C115.805 145.857 115.662 144.249 115.662 142.605C115.662 137.131 117.649 132.543 121.623 128.839C125.597 125.135 130.343 123.283 135.861 123.283ZM135.955 111.283C138.579 111.283 141.142 111.606 143.644 112.252C146.145 112.897 148.565 113.825 150.902 115.033C151.245 115.209 151.44 115.419 151.486 115.663C151.533 115.906 151.509 116.142 151.416 116.369C151.323 116.597 151.155 116.762 150.912 116.865C150.668 116.967 150.418 116.946 150.162 116.802C147.985 115.581 145.696 114.676 143.295 114.088C140.894 113.5 138.439 113.206 135.931 113.206C133.466 113.206 131.051 113.519 128.686 114.146C126.32 114.772 124.027 115.658 121.806 116.802C121.633 116.914 121.42 116.934 121.166 116.862C120.913 116.79 120.735 116.635 120.633 116.398C120.53 116.161 120.497 115.931 120.532 115.708C120.567 115.486 120.703 115.302 120.94 115.158C123.242 113.876 125.663 112.909 128.205 112.259C130.747 111.608 133.33 111.283 135.955 111.283ZM135.957 129.393C139.767 129.393 143.027 130.663 145.739 133.204C148.45 135.744 149.806 138.877 149.806 142.605C149.806 142.893 149.718 143.126 149.541 143.302C149.365 143.478 149.133 143.566 148.844 143.566C148.607 143.566 148.388 143.478 148.186 143.302C147.984 143.126 147.883 142.893 147.883 142.605C147.883 139.416 146.703 136.737 144.343 134.569C141.983 132.401 139.187 131.316 135.956 131.316C132.724 131.316 129.933 132.401 127.582 134.569C125.231 136.737 124.056 139.415 124.056 142.601C124.056 146.043 124.655 148.949 125.854 151.319C127.053 153.689 128.777 156.091 131.027 158.524C131.277 158.78 131.378 159.034 131.33 159.288C131.282 159.541 131.181 159.744 131.027 159.898C130.841 160.084 130.622 160.185 130.368 160.201C130.115 160.217 129.88 160.116 129.662 159.898C127.299 157.379 125.454 154.768 124.126 152.064C122.797 149.361 122.133 146.207 122.133 142.603C122.133 138.877 123.484 135.744 126.188 133.204C128.891 130.663 132.148 129.393 135.957 129.393ZM135.834 141.643C136.12 141.643 136.353 141.74 136.534 141.932C136.715 142.124 136.806 142.349 136.806 142.605C136.806 145.828 137.955 148.472 140.253 150.535C142.551 152.597 145.248 153.629 148.344 153.629C148.755 153.629 149.189 153.608 149.647 153.566C150.105 153.525 150.569 153.462 151.037 153.379C151.283 153.328 151.494 153.364 151.669 153.487C151.843 153.611 151.972 153.815 152.056 154.1C152.139 154.354 152.093 154.576 151.916 154.767C151.74 154.957 151.517 155.094 151.248 155.177C150.787 155.289 150.291 155.38 149.76 155.449C149.23 155.518 148.758 155.552 148.344 155.552C144.732 155.552 141.585 154.325 138.904 151.87C136.223 149.416 134.883 146.328 134.883 142.605C134.883 142.349 134.97 142.124 135.144 141.932C135.319 141.74 135.549 141.643 135.834 141.643Z" fill="#4F46E5"/>
</g>
<rect x="160.5" y="160.5" width="47" height="47" rx="23.5" fill="white"/>
<rect x="160.5" y="160.5" width="47" height="47" rx="23.5" stroke="#F1F5F9"/>
<g filter="url(#filter2_dd_1_1011)">
<rect x="160" y="160" width="48" height="48" rx="24" fill="white" fill-opacity="0.01" shape-rendering="crispEdges"/>
</g>
<path d="M181 186.25C180.65 186.25 180.354 186.129 180.113 185.887C179.871 185.646 179.75 185.35 179.75 185C179.75 184.65 179.871 184.354 180.113 184.113C180.354 183.871 180.65 183.75 181 183.75C181.35 183.75 181.646 183.871 181.887 184.113C182.129 184.354 182.25 184.65 182.25 185C182.25 185.35 182.129 185.646 181.887 185.887C181.646 186.129 181.35 186.25 181 186.25ZM187 186.25C186.65 186.25 186.354 186.129 186.113 185.887C185.871 185.646 185.75 185.35 185.75 185C185.75 184.65 185.871 184.354 186.113 184.113C186.354 183.871 186.65 183.75 187 183.75C187.35 183.75 187.646 183.871 187.887 184.113C188.129 184.354 188.25 184.65 188.25 185C188.25 185.35 188.129 185.646 187.887 185.887C187.646 186.129 187.35 186.25 187 186.25ZM184 192C186.233 192 188.125 191.225 189.675 189.675C191.225 188.125 192 186.233 192 184C192 183.6 191.975 183.212 191.925 182.837C191.875 182.462 191.783 182.1 191.65 181.75C191.3 181.833 190.95 181.896 190.6 181.938C190.25 181.979 189.883 182 189.5 182C187.983 182 186.55 181.675 185.2 181.025C183.85 180.375 182.7 179.467 181.75 178.3C181.217 179.6 180.454 180.729 179.463 181.688C178.471 182.646 177.317 183.367 176 183.85C176 183.883 176 183.908 176 183.925C176 183.942 176 183.967 176 184C176 186.233 176.775 188.125 178.325 189.675C179.875 191.225 181.767 192 184 192ZM184 194C182.617 194 181.317 193.737 180.1 193.212C178.883 192.688 177.825 191.975 176.925 191.075C176.025 190.175 175.312 189.117 174.788 187.9C174.263 186.683 174 185.383 174 184C174 182.617 174.263 181.317 174.788 180.1C175.312 178.883 176.025 177.825 176.925 176.925C177.825 176.025 178.883 175.312 180.1 174.788C181.317 174.263 182.617 174 184 174C185.383 174 186.683 174.263 187.9 174.788C189.117 175.312 190.175 176.025 191.075 176.925C191.975 177.825 192.688 178.883 193.212 180.1C193.737 181.317 194 182.617 194 184C194 185.383 193.737 186.683 193.212 187.9C192.688 189.117 191.975 190.175 191.075 191.075C190.175 191.975 189.117 192.688 187.9 193.212C186.683 193.737 185.383 194 184 194ZM182.65 176.125C183.35 177.292 184.3 178.229 185.5 178.938C186.7 179.646 188.033 180 189.5 180C189.733 180 189.958 179.988 190.175 179.963C190.392 179.938 190.617 179.908 190.85 179.875C190.15 178.708 189.2 177.771 188 177.062C186.8 176.354 185.467 176 184 176C183.767 176 183.542 176.012 183.325 176.037C183.108 176.062 182.883 176.092 182.65 176.125ZM176.425 181.475C177.275 180.992 178.017 180.367 178.65 179.6C179.283 178.833 179.758 177.975 180.075 177.025C179.225 177.508 178.483 178.133 177.85 178.9C177.217 179.667 176.742 180.525 176.425 181.475Z" fill="#4F46E5"/>
<defs>
<filter id="filter0_f_1_1011" x="0" y="0" width="272" height="272" filterUnits="userSpaceOnUse" color-interpolation-filters="sRGB">
<feFlood flood-opacity="0" result="BackgroundImageFix"/>
<feBlend mode="normal" in="SourceGraphic" in2="BackgroundImageFix" result="shape"/>
<feGaussianBlur stdDeviation="20" result="effect1_foregroundBlur_1_1011"/>
</filter>
<filter id="filter1_d_1_1011" x="70" y="71" width="132" height="132" filterUnits="userSpaceOnUse" color-interpolation-filters="sRGB">
<feFlood flood-opacity="0" result="BackgroundImageFix"/>
<feColorMatrix in="SourceAlpha" type="matrix" values="0 0 0 0 0 0 0 0 0 0 0 0 0 0 0 0 0 0 127 0" result="hardAlpha"/>
<feOffset dy="1"/>
<feGaussianBlur stdDeviation="1"/>
<feComposite in2="hardAlpha" operator="out"/>
<feColorMatrix type="matrix" values="0 0 0 0 0 0 0 0 0 0 0 0 0 0 0 0 0 0 0.05 0"/>
<feBlend mode="normal" in2="BackgroundImageFix" result="effect1_dropShadow_1_1011"/>
<feBlend mode="normal" in="SourceGraphic" in2="effect1_dropShadow_1_1011" result="shape"/>
</filter>
<filter id="filter2_dd_1_1011" x="155" y="159" width="58" height="58" filterUnits="userSpaceOnUse" color-interpolation-filters="sRGB">
<feFlood flood-opacity="0" result="BackgroundImageFix"/>
<feColorMatrix in="SourceAlpha" type="matrix" values="0 0 0 0 0 0 0 0 0 0 0 0 0 0 0 0 0 0 127 0" result="hardAlpha"/>
<feMorphology radius="2" operator="erode" in="SourceAlpha" result="effect1_dropShadow_1_1011"/>
<feOffset dy="2"/>
<feGaussianBlur stdDeviation="2"/>
<feComposite in2="hardAlpha" operator="out"/>
<feColorMatrix type="matrix" values="0 0 0 0 0 0 0 0 0 0 0 0 0 0 0 0 0 0 0.1 0"/>
<feBlend mode="normal" in2="BackgroundImageFix" result="effect1_dropShadow_1_1011"/>
<feColorMatrix in="SourceAlpha" type="matrix" values="0 0 0 0 0 0 0 0 0 0 0 0 0 0 0 0 0 0 127 0" result="hardAlpha"/>
<feMorphology radius="1" operator="erode" in="SourceAlpha" result="effect2_dropShadow_1_1011"/>
<feOffset dy="4"/>
<feGaussianBlur stdDeviation="3"/>
<feComposite in2="hardAlpha" operator="out"/>
<feColorMatrix type="matrix" values="0 0 0 0 0 0 0 0 0 0 0 0 0 0 0 0 0 0 0.1 0"/>
<feBlend mode="normal" in2="effect1_dropShadow_1_1011" result="effect2_dropShadow_1_1011"/>
<feBlend mode="normal" in="SourceGraphic" in2="effect2_dropShadow_1_1011" result="shape"/>
</filter>
</defs>
</svg>
