<svg width="280" height="256" viewBox="0 0 280 256" fill="none" xmlns="http://www.w3.org/2000/svg">
<path opacity="0.2" d="M118 160C111.933 160 106.75 157.9 102.45 153.7C98.15 149.5 96 144.367 96 138.3C96 133.1 97.5667 128.467 100.7 124.4C103.833 120.333 107.933 117.733 113 116.6C114.667 110.467 118 105.5 123 101.7C128 97.9 133.667 96 140 96C147.8 96 154.417 98.7167 159.85 104.15C165.283 109.583 168 116.2 168 124C172.6 124.533 176.417 126.517 179.45 129.95C182.483 133.383 184 137.4 184 142C184 147 182.25 151.25 178.75 154.75C175.25 158.25 171 160 166 160H118ZM118 152H166C168.8 152 171.167 151.033 173.1 149.1C175.033 147.167 176 144.8 176 142C176 139.2 175.033 136.833 173.1 134.9C171.167 132.967 168.8 132 166 132H160V124C160 118.467 158.05 113.75 154.15 109.85C150.25 105.95 145.533 104 140 104C134.467 104 129.75 105.95 125.85 109.85C121.95 113.75 120 118.467 120 124H118C114.133 124 110.833 125.367 108.1 128.1C105.367 130.833 104 134.133 104 138C104 141.867 105.367 145.167 108.1 147.9C110.833 150.633 114.133 152 118 152Z" fill="#4F46E5"/>
<path d="M124 164V159H130.875L129.875 158.125C127.708 156.208 126.188 154.021 125.312 151.562C124.438 149.104 124 146.625 124 144.125C124 139.5 125.385 135.385 128.156 131.781C130.927 128.177 134.542 125.792 139 124.625V129.875C136 130.958 133.583 132.802 131.75 135.406C129.917 138.01 129 140.917 129 144.125C129 146 129.354 147.823 130.062 149.594C130.771 151.365 131.875 153 133.375 154.5L134 155.125V149H139V164H124ZM149 163.375V158.125C152 157.042 154.417 155.198 156.25 152.594C158.083 149.99 159 147.083 159 143.875C159 142 158.646 140.177 157.938 138.406C157.229 136.635 156.125 135 154.625 133.5L154 132.875V139H149V124H164V129H157.125L158.125 129.875C160.167 131.917 161.656 134.135 162.594 136.531C163.531 138.927 164 141.375 164 143.875C164 148.5 162.615 152.615 159.844 156.219C157.073 159.823 153.458 162.208 149 163.375Z" fill="#4F46E5"/>
<path d="M215.75 75.5C215.062 75.5 214.474 75.2552 213.984 74.7656C213.495 74.276 213.25 73.6875 213.25 73V50.5C213.25 49.8125 213.495 49.224 213.984 48.7344C214.474 48.2448 215.062 48 215.75 48H228.25C228.938 48 229.526 48.2448 230.016 48.7344C230.505 49.224 230.75 49.8125 230.75 50.5V54.375C231.125 54.5208 231.427 54.75 231.656 55.0625C231.885 55.375 232 55.7292 232 56.125V58.625C232 59.0208 231.885 59.375 231.656 59.6875C231.427 60 231.125 60.2292 230.75 60.375V73C230.75 73.6875 230.505 74.276 230.016 74.7656C229.526 75.2552 228.938 75.5 228.25 75.5H215.75ZM215.75 73H228.25V50.5H215.75V73ZM215.75 73V50.5V73ZM222 54.25C222.354 54.25 222.651 54.1302 222.891 53.8906C223.13 53.651 223.25 53.3542 223.25 53C223.25 52.6458 223.13 52.349 222.891 52.1094C222.651 51.8698 222.354 51.75 222 51.75C221.646 51.75 221.349 51.8698 221.109 52.1094C220.87 52.349 220.75 52.6458 220.75 53C220.75 53.3542 220.87 53.651 221.109 53.8906C221.349 54.1302 221.646 54.25 222 54.25Z" fill="#94A3B8"/>
<path d="M48 208V205.5H75.5V208H48ZM51.75 204.25C51.0625 204.25 50.474 204.005 49.9844 203.516C49.4948 203.026 49.25 202.438 49.25 201.75V188C49.25 187.312 49.4948 186.724 49.9844 186.234C50.474 185.745 51.0625 185.5 51.75 185.5H71.75C72.4375 185.5 73.026 185.745 73.5156 186.234C74.0052 186.724 74.25 187.312 74.25 188V201.75C74.25 202.438 74.0052 203.026 73.5156 203.516C73.026 204.005 72.4375 204.25 71.75 204.25H51.75ZM51.75 201.75H71.75V188H51.75V201.75ZM51.75 201.75V188V201.75Z" fill="#94A3B8"/>
</svg>
