<svg width="320" height="320" viewBox="0 0 320 320" fill="none" xmlns="http://www.w3.org/2000/svg">
<rect width="320" height="320" rx="16" fill="#4F46E5" fill-opacity="0.05"/>
<path d="M160 193.333C152.278 191.389 145.903 186.958 140.875 180.042C135.847 173.125 133.333 165.444 133.333 157V136.667L160 126.667L186.667 136.667V157C186.667 165.444 184.153 173.125 179.125 180.042C174.097 186.958 167.722 191.389 160 193.333ZM160 186.333C165.389 184.667 169.889 181.375 173.5 176.458C177.111 171.542 179.222 166.056 179.833 160H160V133.75L140 141.25V157C140 157.611 140 158.111 140 158.5C140 158.889 140.056 159.389 140.167 160H160V186.333Z" fill="#4F46E5"/>
<g opacity="0.2">
<path d="M140 200C128.417 197.083 118.854 190.438 111.312 180.062C103.771 169.688 100 158.167 100 145.5V115L140 100L180 115V145.5C180 158.167 176.229 169.688 168.688 180.062C161.146 190.438 151.583 197.083 140 200ZM140 189.5C148.667 186.75 155.833 181.25 161.5 173C167.167 164.75 170 155.583 170 145.5V121.875L140 110.625L110 121.875V145.5C110 155.583 112.833 164.75 118.5 173C124.167 181.25 131.333 186.75 140 189.5Z" fill="#4F46E5"/>
</g>
<rect x="32" y="32" width="16" height="16" rx="8" fill="#4F46E5" fill-opacity="0.2"/>
<rect x="248" y="248" width="24" height="24" rx="12" fill="#4F46E5" fill-opacity="0.2"/>
</svg>
