<svg width="121" height="28" viewBox="0 0 121 28" fill="none" xmlns="http://www.w3.org/2000/svg">
<path d="M10 26.5C7.10417 25.7708 4.71354 24.1094 2.82812 21.5156C0.942708 18.9219 0 16.0417 0 12.875V5.25L10 1.5L20 5.25V12.875C20 16.0417 19.0573 18.9219 17.1719 21.5156C15.2865 24.1094 12.8958 25.7708 10 26.5ZM7.5 19H12.5C12.8542 19 13.151 18.8802 13.3906 18.6406C13.6302 18.401 13.75 18.1042 13.75 17.75V14C13.75 13.6458 13.6302 13.349 13.3906 13.1094C13.151 12.8698 12.8542 12.75 12.5 12.75V11.5C12.5 10.8125 12.2552 10.224 11.7656 9.73438C11.276 9.24479 10.6875 9 10 9C9.3125 9 8.72396 9.24479 8.23438 9.73438C7.74479 10.224 7.5 10.8125 7.5 11.5V12.75C7.14583 12.75 6.84896 12.8698 6.60938 13.1094C6.36979 13.349 6.25 13.6458 6.25 14V17.75C6.25 18.1042 6.36979 18.401 6.60938 18.6406C6.84896 18.8802 7.14583 19 7.5 19ZM8.75 12.75V11.5C8.75 11.1458 8.86979 10.849 9.10938 10.6094C9.34896 10.3698 9.64583 10.25 10 10.25C10.3542 10.25 10.651 10.3698 10.8906 10.6094C11.1302 10.849 11.25 11.1458 11.25 11.5V12.75H8.75Z" fill="#4F46E5"/>
<path d="M29.3148 21V6.44922H34.9914C36.0961 6.44922 37.0358 6.65944 37.8104 7.07988C38.585 7.50033 39.1761 8.07995 39.5836 8.81876C39.9912 9.55756 40.195 10.4056 40.195 11.3629C40.195 12.3237 39.9885 13.1706 39.5757 13.9036C39.1629 14.6367 38.5638 15.2106 37.7783 15.6255C36.9929 16.0404 36.0408 16.2479 34.9221 16.2479H31.2754V13.8418H34.4492C35.0557 13.8418 35.5564 13.7363 35.9513 13.5254C36.3462 13.3144 36.6398 13.0226 36.8321 12.6497C37.0243 12.2769 37.1205 11.8479 37.1205 11.3629C37.1205 10.8709 37.0243 10.4408 36.8321 10.0727C36.6398 9.7046 36.3455 9.41847 35.9491 9.21431C35.5527 9.01015 35.0497 8.90807 34.4402 8.90807H32.2989V21H29.3148ZM44.5041 21.2117C43.8105 21.2117 43.1891 21.0894 42.64 20.8448C42.0909 20.6002 41.6592 20.2361 41.3447 19.7523C41.0303 19.2686 40.873 18.6669 40.873 17.9473C40.873 17.3363 40.9844 16.8268 41.2072 16.4186C41.43 16.0104 41.7349 15.6816 42.1219 15.4324C42.509 15.1832 42.9488 14.9936 43.4413 14.8636C43.9338 14.7336 44.4498 14.643 44.9892 14.592C45.6192 14.5284 46.1278 14.4686 46.5151 14.4125C46.9024 14.3564 47.1866 14.2686 47.3675 14.1491C47.5485 14.0296 47.639 13.8523 47.639 13.617V13.5689C47.639 13.2574 47.5728 12.9938 47.4405 12.7782C47.3081 12.5627 47.1149 12.3975 46.8607 12.2828C46.6066 12.168 46.2941 12.1106 45.9234 12.1106C45.5503 12.1106 45.2239 12.1674 44.9442 12.2809C44.6645 12.3944 44.4355 12.546 44.2571 12.7357C44.0787 12.9253 43.9502 13.1383 43.8717 13.3746L41.1855 12.9287C41.3706 12.2928 41.6814 11.7534 42.1179 11.3105C42.5545 10.8676 43.0971 10.5293 43.7456 10.2957C44.3941 10.0621 45.1231 9.94531 45.9326 9.94531C46.5187 9.94531 47.0884 10.0147 47.6418 10.1536C48.1952 10.2925 48.6919 10.5097 49.1319 10.8053C49.5719 11.1009 49.9211 11.4831 50.1797 11.952C50.4383 12.4208 50.5676 12.9868 50.5676 13.6498V21H47.7896V19.484H47.6935C47.5171 19.8223 47.2825 20.1212 46.9897 20.3809C46.6969 20.6405 46.3448 20.8439 45.9332 20.991C45.5216 21.1381 45.0452 21.2117 44.5041 21.2117ZM45.3289 19.158C45.7901 19.158 46.1952 19.0662 46.5442 18.8826C46.8932 18.699 47.1665 18.4512 47.3639 18.1392C47.5614 17.8273 47.6601 17.4798 47.6601 17.0969V15.9155C47.5709 15.9755 47.4393 16.0318 47.2652 16.0843C47.0911 16.1368 46.8969 16.1839 46.6826 16.2254C46.4683 16.2669 46.2567 16.303 46.0479 16.3335C45.839 16.364 45.6535 16.3908 45.4912 16.4139C45.1313 16.4625 44.8149 16.5449 44.542 16.6613C44.2691 16.7778 44.0571 16.9334 43.9061 17.1283C43.7551 17.3232 43.6796 17.5675 43.6796 17.8611C43.6796 18.1438 43.7508 18.3813 43.8934 18.5737C44.036 18.7661 44.2308 18.9116 44.478 19.0101C44.7251 19.1087 45.0087 19.158 45.3289 19.158ZM56.9026 21.2133C56.0238 21.2133 55.2456 21.0875 54.568 20.836C53.8904 20.5845 53.3373 20.2202 52.9087 19.7431C52.4801 19.2659 52.2025 18.6902 52.0758 18.016L54.8057 17.547C54.9479 18.0546 55.1977 18.4351 55.555 18.6887C55.9124 18.9423 56.3902 19.0691 56.9885 19.0691C57.5463 19.0691 57.9873 18.9626 58.3114 18.7496C58.6356 18.5366 58.7976 18.267 58.7976 17.9408C58.7976 17.6546 58.6825 17.4205 58.4522 17.2384C58.222 17.0563 57.8665 16.9157 57.3859 16.8166L55.5062 16.4291C54.4534 16.2123 53.6667 15.8459 53.1463 15.3297C52.6258 14.8136 52.3656 14.1468 52.3656 13.3293C52.3656 12.6305 52.5563 12.0286 52.9378 11.5237C53.3192 11.0188 53.853 10.6296 54.5391 10.3559C55.2251 10.0822 56.0276 9.94531 56.9465 9.94531C57.8112 9.94531 58.5592 10.0646 59.1906 10.3033C59.8219 10.542 60.3318 10.8785 60.7204 11.3128C61.1089 11.7471 61.3705 12.2619 61.5051 12.8571L58.906 13.3147C58.7915 12.9416 58.5767 12.6369 58.2618 12.4005C57.9469 12.1641 57.524 12.0459 56.9932 12.0459C56.5109 12.0459 56.1069 12.1473 55.7812 12.3501C55.4555 12.5529 55.2926 12.8207 55.2926 13.1533C55.2926 13.4269 55.3978 13.6585 55.6082 13.8481C55.8185 14.0378 56.1812 14.1864 56.6961 14.2939L58.6577 14.6845C59.7141 14.8978 60.5001 15.2476 61.0158 15.7339C61.5315 16.2201 61.7893 16.8534 61.7893 17.6338C61.7893 18.3491 61.5805 18.9752 61.163 19.5119C60.7454 20.0486 60.1696 20.4664 59.4357 20.7651C58.7018 21.0639 57.8574 21.2133 56.9026 21.2133ZM67.6037 21.2133C66.7249 21.2133 65.9468 21.0875 65.2691 20.836C64.5915 20.5845 64.0384 20.2202 63.6098 19.7431C63.1813 19.2659 62.9036 18.6902 62.7769 18.016L65.5069 17.547C65.6491 18.0546 65.8988 18.4351 66.2562 18.6887C66.6135 18.9423 67.0914 19.0691 67.6897 19.0691C68.2475 19.0691 68.6884 18.9626 69.0126 18.7496C69.3367 18.5366 69.4988 18.267 69.4988 17.9408C69.4988 17.6546 69.3837 17.4205 69.1534 17.2384C68.9231 17.0563 68.5677 16.9157 68.0871 16.8166L66.2074 16.4291C65.1545 16.2123 64.3679 15.8459 63.8474 15.3297C63.327 14.8136 63.0668 14.1468 63.0668 13.3293C63.0668 12.6305 63.2575 12.0286 63.6389 11.5237C64.0204 11.0188 64.5542 10.6296 65.2402 10.3559C65.9263 10.0822 66.7288 9.94531 67.6477 9.94531C68.5124 9.94531 69.2604 10.0646 69.8917 10.3033C70.5231 10.542 71.033 10.8785 71.4215 11.3128C71.8101 11.7471 72.0717 12.2619 72.2063 12.8571L69.6072 13.3147C69.4926 12.9416 69.2779 12.6369 68.963 12.4005C68.6481 12.1641 68.2252 12.0459 67.6944 12.0459C67.2121 12.0459 66.8081 12.1473 66.4824 12.3501C66.1567 12.5529 65.9938 12.8207 65.9938 13.1533C65.9938 13.4269 66.099 13.6585 66.3093 13.8481C66.5197 14.0378 66.8823 14.1864 67.3973 14.2939L69.3588 14.6845C70.4152 14.8978 71.2013 15.2476 71.717 15.7339C72.2326 16.2201 72.4905 16.8534 72.4905 17.6338C72.4905 18.3491 72.2817 18.9752 71.8641 19.5119C71.4465 20.0486 70.8708 20.4664 70.1369 20.7651C69.4029 21.0639 68.5586 21.2133 67.6037 21.2133ZM77.3851 21L72.2867 6.44922H75.6005L77.9278 13.4682C78.2055 14.3568 78.4877 15.3332 78.7742 16.3973C79.0607 17.4615 79.3622 18.6236 79.6786 19.8838H79.0377C79.3471 18.6086 79.639 17.4427 79.9135 16.3861C80.188 15.3294 80.4591 14.3568 80.7268 13.4682L82.976 6.44922H86.2671L81.28 21H77.3851ZM89.3595 21.2117C88.6659 21.2117 88.0446 21.0894 87.4955 20.8448C86.9464 20.6002 86.5146 20.2361 86.2002 19.7523C85.8857 19.2686 85.7285 18.6669 85.7285 17.9473C85.7285 17.3363 85.8399 16.8268 86.0627 16.4186C86.2855 16.0104 86.5904 15.6816 86.9774 15.4324C87.3645 15.1832 87.8042 14.9936 88.2968 14.8636C88.7893 14.7336 89.3052 14.643 89.8447 14.592C90.4746 14.5284 90.9833 14.4686 91.3706 14.4125C91.7579 14.3564 92.042 14.2686 92.223 14.1491C92.404 14.0296 92.4945 13.8523 92.4945 13.617V13.5689C92.4945 13.2574 92.4283 12.9938 92.296 12.7782C92.1636 12.5627 91.9704 12.3975 91.7162 12.2828C91.462 12.168 91.1496 12.1106 90.7789 12.1106C90.4057 12.1106 90.0793 12.1674 89.7996 12.2809C89.52 12.3944 89.2909 12.546 89.1125 12.7357C88.9342 12.9253 88.8057 13.1383 88.7272 13.3746L86.041 12.9287C86.226 12.2928 86.5368 11.7534 86.9734 11.3105C87.41 10.8676 87.9525 10.5293 88.601 10.2957C89.2496 10.0621 89.9786 9.94531 90.7881 9.94531C91.3742 9.94531 91.9439 10.0147 92.4973 10.1536C93.0507 10.2925 93.5474 10.5097 93.9874 10.8053C94.4273 11.1009 94.7766 11.4831 95.0352 11.952C95.2938 12.4208 95.4231 12.9868 95.4231 13.6498V21H92.6451V19.484H92.549C92.3726 19.8223 92.138 20.1212 91.8452 20.3809C91.5524 20.6405 91.2002 20.8439 90.7886 20.991C90.3771 21.1381 89.9007 21.2117 89.3595 21.2117ZM90.1844 19.158C90.6456 19.158 91.0507 19.0662 91.3997 18.8826C91.7487 18.699 92.0219 18.4512 92.2194 18.1392C92.4169 17.8273 92.5156 17.4798 92.5156 17.0969V15.9155C92.4264 15.9755 92.2948 16.0318 92.1207 16.0843C91.9466 16.1368 91.7524 16.1839 91.5381 16.2254C91.3238 16.2669 91.1122 16.303 90.9033 16.3335C90.6945 16.364 90.5089 16.3908 90.3467 16.4139C89.9868 16.4625 89.6704 16.5449 89.3975 16.6613C89.1246 16.7778 88.9126 16.9334 88.7616 17.1283C88.6105 17.3232 88.535 17.5675 88.535 17.8611C88.535 18.1438 88.6063 18.3813 88.7489 18.5737C88.8915 18.7661 89.0863 18.9116 89.3334 19.0101C89.5806 19.1087 89.8642 19.158 90.1844 19.158ZM101.179 21.1367C100.425 21.1367 99.7661 20.9722 99.2007 20.6431C98.6352 20.314 98.197 19.8417 97.886 19.2262C97.575 18.6107 97.4195 17.8773 97.4195 17.0262V10.082H100.348V16.5158C100.348 17.1939 100.524 17.7258 100.875 18.1114C101.226 18.497 101.711 18.6898 102.328 18.6898C102.744 18.6898 103.11 18.5996 103.426 18.4192C103.743 18.2388 103.992 17.9772 104.173 17.6344C104.354 17.2917 104.445 16.8814 104.445 16.4035V10.082H107.378V21H104.608L104.566 18.2744H104.737C104.448 19.1911 104.01 19.8973 103.423 20.3931C102.837 20.8888 102.088 21.1367 101.179 21.1367ZM112.299 6.44922V21H109.371V6.44922H112.299ZM120.009 10.082V12.3137H113.531V10.082H120.009ZM115.035 7.48438H117.963V17.8041C117.963 18.1517 118.041 18.408 118.195 18.5728C118.35 18.7376 118.604 18.8201 118.957 18.8201C119.071 18.8201 119.229 18.8062 119.429 18.7784C119.63 18.7506 119.783 18.7236 119.887 18.6976L120.307 20.8939C119.98 20.9907 119.656 21.058 119.336 21.0958C119.015 21.1336 118.707 21.1525 118.413 21.1525C117.317 21.1525 116.481 20.8868 115.902 20.3554C115.324 19.8239 115.035 19.0595 115.035 18.0621V7.48438Z" fill="#4F46E5"/>
</svg>
