<svg width="324" height="281" viewBox="0 0 324 281" fill="none" xmlns="http://www.w3.org/2000/svg">
<g filter="url(#filter0_d_1_318)">
<rect x="2" y="1" width="320" height="277" rx="24" fill="white" shape-rendering="crispEdges"/>
<rect x="2.5" y="1.5" width="319" height="276" rx="23.5" stroke="#E2E8F0" shape-rendering="crispEdges"/>
<path d="M31.2521 38.1355C30.5768 38.1355 29.9895 38.03 29.49 37.8192C28.9905 37.6083 28.6008 37.3016 28.3208 36.8991C28.0408 36.4966 27.8889 36.0077 27.865 35.4322H29.4062C29.4318 35.7378 29.5273 35.9918 29.6927 36.1942C29.8581 36.3965 30.0755 36.5477 30.3448 36.6477C30.6141 36.7477 30.9123 36.7977 31.2395 36.7977C31.5834 36.7977 31.8869 36.7452 32.15 36.6402C32.4132 36.5352 32.6193 36.3876 32.7684 36.1975C32.9176 36.0075 32.9922 35.7877 32.9922 35.5381C32.9922 35.3103 32.9264 35.1222 32.7949 34.9739C32.6634 34.8255 32.4795 34.7003 32.2431 34.5983C32.0067 34.4962 31.7301 34.4058 31.4134 34.3269L30.422 34.0681C29.695 33.8816 29.1266 33.5982 28.717 33.2179C28.3074 32.8377 28.1026 32.3395 28.1026 31.7234C28.1026 31.2087 28.2418 30.7584 28.52 30.3724C28.7983 29.9864 29.1777 29.6865 29.6583 29.4729C30.1388 29.2592 30.6836 29.1523 31.2925 29.1523C31.9145 29.1523 32.4592 29.2599 32.9266 29.475C33.3941 29.69 33.7599 29.9864 34.0242 30.3642C34.2885 30.7419 34.4264 31.1747 34.4378 31.6625H32.9218C32.8823 31.2873 32.7147 30.9969 32.419 30.7912C32.1233 30.5855 31.7403 30.4826 31.27 30.4826C30.9428 30.4826 30.6604 30.5322 30.4229 30.6314C30.1854 30.7305 30.0033 30.8665 29.8766 31.0393C29.7499 31.2121 29.6865 31.4092 29.6865 31.6306C29.6865 31.8748 29.7615 32.075 29.9116 32.231C30.0617 32.387 30.2512 32.5118 30.48 32.6055C30.7088 32.6992 30.94 32.7753 31.1734 32.8339L31.9895 33.0425C32.3125 33.1191 32.6268 33.2226 32.9325 33.3531C33.2382 33.4835 33.5133 33.6473 33.7577 33.8444C34.0022 34.0415 34.1962 34.2801 34.3397 34.5601C34.4832 34.8401 34.555 35.1698 34.555 35.5494C34.555 36.0611 34.4246 36.5115 34.1639 36.9007C33.9032 37.2898 33.5267 37.5929 33.0343 37.8099C32.542 38.027 31.9479 38.1355 31.2521 38.1355ZM36.5898 38V29.2695H42.2603V30.5872H38.1545V32.9413H41.9584V34.242H38.1545V36.6824H42.2856V38H36.5898ZM48.1764 38.1172C47.412 38.1172 46.7287 37.9397 46.1264 37.5847C45.5241 37.2297 45.0497 36.7179 44.7031 36.0494C44.3564 35.3809 44.1831 34.578 44.1831 33.6406C44.1831 32.698 44.3575 31.892 44.7062 31.2228C45.055 30.5536 45.5308 30.0412 46.1338 29.6857C46.7368 29.3301 47.4176 29.1523 48.1764 29.1523C48.6543 29.1523 49.1016 29.22 49.518 29.3552C49.9345 29.4904 50.3053 29.688 50.6305 29.948C50.9557 30.208 51.2238 30.525 51.4349 30.8989C51.646 31.2728 51.7864 31.6984 51.856 32.1758H50.2787C50.2303 31.9158 50.1442 31.6858 50.0206 31.486C49.8969 31.2862 49.7432 31.1165 49.5594 30.9772C49.3757 30.8378 49.1688 30.7326 48.9387 30.6615C48.7086 30.5904 48.4629 30.5548 48.2017 30.5548C47.7246 30.5548 47.3016 30.6746 46.9324 30.9142C46.5633 31.1539 46.2746 31.5031 46.0665 31.9619C45.8584 32.4207 45.7543 32.9803 45.7543 33.6406C45.7543 34.3069 45.8597 34.8691 46.0705 35.3272C46.2813 35.7853 46.5705 36.1311 46.9383 36.3645C47.306 36.598 47.7257 36.7147 48.1975 36.7147C48.4587 36.7147 48.704 36.6785 48.9334 36.6062C49.1628 36.5338 49.37 36.4286 49.5552 36.2905C49.7404 36.1524 49.8955 35.9827 50.0206 35.7817C50.1456 35.5806 50.2331 35.3513 50.2829 35.0938H51.8603C51.8029 35.5124 51.6754 35.9038 51.4776 36.268C51.2799 36.6322 51.0216 36.9534 50.7028 37.2315C50.384 37.5096 50.0121 37.7268 49.5872 37.8829C49.1623 38.0391 48.692 38.1172 48.1764 38.1172ZM57.4377 38.128C56.7277 38.128 56.1067 37.9943 55.5748 37.7268C55.0428 37.4594 54.6302 37.0882 54.337 36.6131C54.0438 36.138 53.8972 35.5897 53.8972 34.9681V29.2695H55.4619V34.8402C55.4619 35.2061 55.5431 35.5311 55.7054 35.815C55.8678 36.099 56.0966 36.3225 56.3918 36.4854C56.687 36.6483 57.0357 36.7297 57.4377 36.7297C57.8411 36.7297 58.1902 36.6483 58.4849 36.4854C58.7796 36.3225 59.0075 36.099 59.1686 35.815C59.3297 35.5311 59.4102 35.2061 59.4102 34.8402V29.2695H60.9749V34.9681C60.9749 35.5897 60.8279 36.138 60.534 36.6131C60.2401 37.0882 59.8281 37.4594 59.2979 37.7268C58.7678 37.9943 58.1477 38.128 57.4377 38.128ZM63.3273 38V29.2695H66.594C67.2625 29.2695 67.8248 29.3864 68.2812 29.6203C68.7375 29.8541 69.0827 30.1808 69.3166 30.6004C69.5506 31.02 69.6676 31.5072 69.6676 32.0619C69.6676 32.6194 69.5496 33.103 69.3135 33.5126C69.0774 33.9223 68.7293 34.2384 68.2693 34.4609C67.8093 34.6834 67.2423 34.7947 66.5682 34.7947H64.2395V33.4986H66.3615C66.7578 33.4986 67.0811 33.4428 67.3316 33.3313C67.5821 33.2197 67.7676 33.0571 67.888 32.8435C68.0085 32.6299 68.0687 32.3694 68.0687 32.0619C68.0687 31.7494 68.0085 31.4831 67.888 31.2631C67.7676 31.0431 67.5815 30.8741 67.3297 30.7562C67.078 30.6382 66.7528 30.5792 66.354 30.5792H64.892V38H63.3273ZM68.2375 38L66.1197 34.0409H67.8292L69.9906 38H68.2375ZM73.3201 29.2695V38H71.7554V29.2695H73.3201ZM75.2858 30.5872V29.2695H82.2378V30.5872H79.5479V38H77.9832V30.5872H75.2858ZM86.9921 38V34.6198L83.7664 29.2695H85.5934L87.1532 32.0225C87.3189 32.3108 87.4661 32.5922 87.5947 32.8666C87.7233 33.1411 87.8557 33.4759 87.992 33.8713H87.5825C87.716 33.4709 87.8462 33.1323 87.9732 32.8554C88.1003 32.5784 88.2422 32.3008 88.3991 32.0225L89.9256 29.2695H91.7446L88.5526 34.6198V38H86.9921ZM100.857 38.1172C100.092 38.1172 99.4091 37.9397 98.8069 37.5847C98.2046 37.2297 97.7302 36.7179 97.3835 36.0494C97.0369 35.3809 96.8636 34.578 96.8636 33.6406C96.8636 32.698 97.0379 31.892 97.3867 31.2228C97.7354 30.5536 98.2113 30.0412 98.8143 29.6857C99.4172 29.3301 100.098 29.1523 100.857 29.1523C101.335 29.1523 101.782 29.22 102.199 29.3552C102.615 29.4904 102.986 29.688 103.311 29.948C103.636 30.208 103.904 30.525 104.115 30.8989C104.326 31.2728 104.467 31.6984 104.537 32.1758H102.959C102.911 31.9158 102.825 31.6858 102.701 31.486C102.577 31.2862 102.424 31.1165 102.24 30.9772C102.056 30.8378 101.849 30.7326 101.619 30.6615C101.389 30.5904 101.143 30.5548 100.882 30.5548C100.405 30.5548 99.982 30.6746 99.6129 30.9142C99.2437 31.1539 98.9551 31.5031 98.747 31.9619C98.5389 32.4207 98.4348 32.9803 98.4348 33.6406C98.4348 34.3069 98.5402 34.8691 98.751 35.3272C98.9617 35.7853 99.251 36.1311 99.6187 36.3645C99.9865 36.598 100.406 36.7147 100.878 36.7147C101.139 36.7147 101.384 36.6785 101.614 36.6062C101.843 36.5338 102.051 36.4286 102.236 36.2905C102.421 36.1524 102.576 35.9827 102.701 35.7817C102.826 35.5806 102.914 35.3513 102.963 35.0938H104.541C104.483 35.5124 104.356 35.9038 104.158 36.268C103.96 36.6322 103.702 36.9534 103.383 37.2315C103.064 37.5096 102.693 37.7268 102.268 37.8829C101.843 38.0391 101.372 38.1172 100.857 38.1172ZM106.578 38V29.2695H108.142V32.8784H112.206V29.2695H113.77V38H112.206V34.1961H108.142V38H106.578ZM116.125 38V29.2695H121.795V30.5872H117.69V32.9413H121.494V34.242H117.69V36.6824H121.821V38H116.125ZM127.712 38.1172C126.947 38.1172 126.264 37.9397 125.662 37.5847C125.059 37.2297 124.585 36.7179 124.238 36.0494C123.892 35.3809 123.718 34.578 123.718 33.6406C123.718 32.698 123.893 31.892 124.241 31.2228C124.59 30.5536 125.066 30.0412 125.669 29.6857C126.272 29.3301 126.953 29.1523 127.712 29.1523C128.189 29.1523 128.637 29.22 129.053 29.3552C129.47 29.4904 129.84 29.688 130.166 29.948C130.491 30.208 130.759 30.525 130.97 30.8989C131.181 31.2728 131.322 31.6984 131.391 32.1758H129.814C129.765 31.9158 129.679 31.6858 129.556 31.486C129.432 31.2862 129.278 31.1165 129.095 30.9772C128.911 30.8378 128.704 30.7326 128.474 30.6615C128.244 30.5904 127.998 30.5548 127.737 30.5548C127.26 30.5548 126.837 30.6746 126.468 30.9142C126.098 31.1539 125.81 31.5031 125.602 31.9619C125.394 32.4207 125.289 32.9803 125.289 33.6406C125.289 34.3069 125.395 34.8691 125.606 35.3272C125.816 35.7853 126.106 36.1311 126.473 36.3645C126.841 36.598 127.261 36.7147 127.733 36.7147C127.994 36.7147 128.239 36.6785 128.469 36.6062C128.698 36.5338 128.905 36.4286 129.09 36.2905C129.276 36.1524 129.431 35.9827 129.556 35.7817C129.681 35.5806 129.768 35.3513 129.818 35.0938H131.395C131.338 35.5124 131.211 35.9038 131.013 36.268C130.815 36.6322 130.557 36.9534 130.238 37.2315C129.919 37.5096 129.547 37.7268 129.122 37.8829C128.697 38.0391 128.227 38.1172 127.712 38.1172ZM134.567 35.8519V34.3693C134.753 34.0621 134.936 33.7754 135.117 33.5093C135.298 33.2431 135.492 32.9789 135.698 32.7167C135.904 32.4545 136.133 32.176 136.384 31.8812L138.677 29.2695H140.621L136.922 33.4449L136.805 33.4074L134.567 35.8519ZM133.432 38V29.2695H134.997V31.857L134.969 33.9657L134.997 34.73V38H133.432ZM138.836 38L136.058 33.894L137.04 32.7146L140.684 38H138.836Z" fill="#94A3B8"/>
<rect x="217" y="31" width="24" height="6" rx="3" fill="#10B981"/>
<rect x="245" y="31" width="24" height="6" rx="3" fill="#10B981"/>
<rect x="273" y="31" width="24" height="6" rx="3" fill="#10B981"/>
<rect x="27.5" y="58.5" width="269" height="80" rx="15.5" fill="#F8FAFC"/>
<rect x="27.5" y="58.5" width="269" height="80" rx="15.5" stroke="#F1F5F9"/>
<path d="M46.6813 86V83.1023L43.9994 78.7246H45.2977L46.6678 81.046C46.8183 81.298 46.9516 81.5409 47.0679 81.7749C47.1841 82.0089 47.304 82.2994 47.4275 82.6464H47.0713C47.1937 82.294 47.313 81.9995 47.4294 81.7629C47.5458 81.5262 47.675 81.2873 47.8168 81.046L49.1706 78.7246H50.4632L47.7953 83.1023V86H46.6813ZM53.6843 86.0977C53.0555 86.0977 52.4934 85.9484 51.998 85.65C51.5025 85.3515 51.1119 84.9234 50.8261 84.3657C50.5403 83.808 50.3974 83.1419 50.3974 82.3672C50.3974 81.5887 50.5403 80.9204 50.8261 80.3625C51.1119 79.8045 51.5025 79.3757 51.998 79.0762C52.4934 78.7767 53.0555 78.627 53.6843 78.627C54.3131 78.627 54.8744 78.7767 55.3682 79.0762C55.862 79.3757 56.2513 79.8045 56.5361 80.3625C56.8208 80.9204 56.9632 81.5887 56.9632 82.3672C56.9632 83.1424 56.8208 83.8089 56.5361 84.3666C56.2513 84.9243 55.862 85.3522 55.3682 85.6504C54.8744 85.9486 54.3131 86.0977 53.6843 86.0977ZM53.6843 85.0836C54.0985 85.0836 54.4691 84.9796 54.7962 84.7716C55.1233 84.5636 55.3819 84.2571 55.5719 83.8522C55.7619 83.4473 55.8569 82.9523 55.8569 82.3672C55.8569 81.7762 55.7619 81.2781 55.5719 80.8728C55.3819 80.4676 55.1233 80.161 54.7962 79.953C54.4691 79.745 54.0985 79.641 53.6843 79.641C53.268 79.641 52.8957 79.7457 52.5673 79.955C52.2389 80.1644 51.9795 80.4716 51.7892 80.8769C51.5989 81.2821 51.5037 81.7788 51.5037 82.3672C51.5037 82.9523 51.5989 83.4466 51.7892 83.8502C51.9795 84.2538 52.2389 84.5602 52.5673 84.7696C52.8957 84.9789 53.268 85.0836 53.6843 85.0836ZM60.717 86.1119C60.1347 86.1119 59.6258 86 59.1901 85.7763C58.7544 85.5526 58.4169 85.2441 58.1775 84.8508C57.9382 84.4576 57.8185 84.0069 57.8185 83.4989V78.7246H58.9343V83.409C58.9343 83.7356 59.0068 84.026 59.1517 84.2803C59.2967 84.5345 59.5023 84.7346 59.7685 84.8806C60.0348 85.0266 60.351 85.0996 60.717 85.0996C61.0837 85.0996 61.3996 85.0266 61.6648 84.8806C61.93 84.7346 62.1345 84.5345 62.2781 84.2803C62.4217 84.026 62.4935 83.7356 62.4935 83.409V78.7246H63.6093V83.4989C63.6093 84.0069 63.4895 84.4576 63.2498 84.8508C63.0102 85.2441 62.6737 85.5526 62.2404 85.7763C61.8071 86 61.2993 86.1119 60.717 86.1119ZM64.7208 86V78.7246H67.3271C67.8888 78.7246 68.3563 78.8217 68.7295 79.016C69.1028 79.2103 69.3825 79.4795 69.5687 79.8236C69.7549 80.1677 69.848 80.5635 69.848 81.0111C69.848 81.4599 69.7544 81.8526 69.5674 82.1894C69.3803 82.5261 69.0998 82.7876 68.7258 82.9739C68.3519 83.1602 67.8829 83.2533 67.3188 83.2533H65.3597V82.3007H67.2107C67.5678 82.3007 67.8568 82.2494 68.0775 82.1467C68.2983 82.0441 68.4606 81.8966 68.5645 81.7042C68.6684 81.5119 68.7204 81.2809 68.7204 81.0111C68.7204 80.7361 68.6684 80.4994 68.5645 80.3011C68.4606 80.1028 68.2976 79.9494 68.0755 79.8409C67.8535 79.7323 67.5625 79.678 67.2027 79.678H65.8367V86H64.7208ZM68.8566 86L67.0953 82.7122H68.33L70.1242 86H68.8566ZM72.8664 86V78.7246H74.1499L76.8883 83.0545C76.9793 83.1978 77.0819 83.3691 77.1961 83.5685C77.3103 83.7678 77.4311 83.9917 77.5585 84.2402C77.6859 84.4887 77.8118 84.7594 77.9361 85.0524H77.7972C77.7703 84.7754 77.7492 84.501 77.7342 84.229C77.7191 83.9571 77.7085 83.7027 77.7023 83.4659C77.6961 83.2291 77.693 83.0285 77.693 82.8641V78.7246H78.8194V86H77.5278L75.0747 82.1266C74.9432 81.9146 74.8149 81.7016 74.6899 81.4876C74.5649 81.2736 74.4267 81.0261 74.2755 80.7452C74.1242 80.4642 73.9389 80.121 73.7195 79.7155H73.8965C73.9146 80.0733 73.9311 80.4082 73.9462 80.72C73.9612 81.0319 73.9734 81.3073 73.9827 81.5463C73.9921 81.7853 73.9967 81.976 73.9967 82.1185V86H72.8664ZM79.9298 86V78.7246H84.5093V79.6838H81.0456V81.8512H84.2639V82.8033H81.0456V85.0408H84.5418V86H79.9298ZM86.8764 86L84.9037 78.7246H86.0777L87.1272 82.8922C87.1914 83.1509 87.2514 83.419 87.3074 83.6964C87.3633 83.9738 87.4177 84.2537 87.4707 84.5362C87.5236 84.8186 87.5741 85.1015 87.622 85.3849H87.4596C87.5119 85.1015 87.565 84.8186 87.6189 84.5362C87.6727 84.2537 87.7297 83.9738 87.7897 83.6964C87.8498 83.419 87.9125 83.1509 87.9779 82.8922L89.0588 78.7246H90.2787L91.3517 82.8922C91.4197 83.1509 91.4831 83.419 91.5418 83.6964C91.6006 83.9738 91.6582 84.2537 91.7147 84.5362C91.7712 84.8186 91.8256 85.1015 91.878 85.3849H91.7027C91.7538 85.1015 91.8058 84.8186 91.8584 84.5362C91.9111 84.2537 91.9669 83.9738 92.0258 83.6964C92.0847 83.419 92.1446 83.1509 92.2055 82.8922L93.2519 78.7246H94.4339L92.4532 86H91.1666L90.0116 81.6868C89.9226 81.3492 89.8408 80.9823 89.7662 80.5861C89.6916 80.1898 89.6156 79.753 89.5381 79.2755H89.7914C89.7104 79.7316 89.6365 80.1535 89.5696 80.5412C89.5027 80.9288 89.4191 81.3107 89.3189 81.6868L88.1669 86H86.8764ZM97.1554 86V78.7246H99.7617C100.323 78.7246 100.791 78.8285 101.164 79.0364C101.537 79.2443 101.817 79.5259 102.003 79.8812C102.189 80.2366 102.283 80.6383 102.283 81.0865C102.283 81.5353 102.189 81.9379 102.002 82.2945C101.815 82.651 101.534 82.9333 101.16 83.1414C100.786 83.3494 100.317 83.4534 99.7534 83.4534H97.9704V82.5088H99.6453C100.002 82.5088 100.292 82.4473 100.514 82.3242C100.736 82.2012 100.898 82.0321 101.001 81.8169C101.104 81.6018 101.155 81.3583 101.155 81.0865C101.155 80.8135 101.104 80.571 101.001 80.3588C100.898 80.1466 100.736 79.9801 100.512 79.8593C100.289 79.7384 99.9971 79.678 99.6372 79.678H98.2712V86H97.1554ZM101.748 86L104.339 78.7246H105.705L108.339 86H107.136L105.719 81.9525C105.609 81.6235 105.488 81.2362 105.356 80.7905C105.225 80.3449 105.073 79.8099 104.9 79.1855H105.125C104.956 79.8152 104.807 80.3556 104.676 80.8065C104.546 81.2575 104.43 81.6395 104.329 81.9525L102.954 86H101.748ZM103.152 84.083V83.1529H106.936V84.083H103.152ZM111.288 86.1199C110.745 86.1199 110.273 86.0337 109.872 85.8612C109.471 85.6887 109.157 85.4425 108.932 85.1226C108.706 84.8027 108.581 84.4212 108.556 83.9779H109.674C109.698 84.242 109.784 84.4605 109.933 84.6336C110.082 84.8066 110.274 84.9355 110.511 85.0203C110.748 85.1051 111.005 85.1475 111.283 85.1475C111.591 85.1475 111.865 85.0987 112.106 85.0013C112.346 84.9038 112.536 84.7667 112.675 84.5898C112.813 84.4129 112.882 84.2082 112.882 83.9757C112.882 83.7636 112.822 83.59 112.701 83.4549C112.581 83.3199 112.417 83.2075 112.209 83.1178C112.001 83.0281 111.767 82.9489 111.504 82.8802L110.652 82.6478C110.056 82.4871 109.591 82.2502 109.258 81.9372C108.924 81.6241 108.758 81.2188 108.758 80.7212C108.758 80.3017 108.871 79.9346 109.098 79.6199C109.324 79.3053 109.632 79.0611 110.021 78.8875C110.41 78.7138 110.849 78.627 111.337 78.627C111.835 78.627 112.274 78.7141 112.653 78.8883C113.031 79.0626 113.329 79.3012 113.546 79.6043C113.762 79.9074 113.876 80.2525 113.888 80.6396H112.802C112.764 80.3059 112.61 80.0478 112.338 79.8652C112.067 79.6827 111.725 79.5914 111.313 79.5914C111.02 79.5914 110.765 79.6377 110.549 79.7303C110.332 79.8228 110.164 79.9495 110.046 80.1102C109.928 80.2709 109.869 80.4544 109.869 80.6605C109.869 80.8893 109.94 81.0748 110.082 81.2171C110.223 81.3594 110.396 81.4716 110.599 81.5538C110.803 81.636 110.997 81.7015 111.182 81.7503L111.886 81.9373C112.118 81.9952 112.357 82.0742 112.602 82.1741C112.848 82.2741 113.075 82.4029 113.284 82.5607C113.494 82.7186 113.663 82.914 113.792 83.147C113.921 83.3801 113.985 83.6603 113.985 83.9877C113.985 84.3995 113.879 84.7662 113.667 85.0878C113.455 85.4095 113.148 85.6619 112.746 85.8451C112.344 86.0283 111.858 86.1199 111.288 86.1199ZM117.248 86.1199C116.705 86.1199 116.233 86.0337 115.832 85.8612C115.431 85.6887 115.117 85.4425 114.892 85.1226C114.666 84.8027 114.541 84.4212 114.516 83.9779H115.634C115.658 84.242 115.744 84.4605 115.893 84.6336C116.042 84.8066 116.234 84.9355 116.471 85.0203C116.708 85.1051 116.965 85.1475 117.243 85.1475C117.551 85.1475 117.825 85.0987 118.066 85.0013C118.306 84.9038 118.496 84.7667 118.634 84.5898C118.773 84.4129 118.842 84.2082 118.842 83.9757C118.842 83.7636 118.782 83.59 118.661 83.4549C118.541 83.3199 118.377 83.2075 118.169 83.1178C117.961 83.0281 117.727 82.9489 117.464 82.8802L116.612 82.6478C116.016 82.4871 115.551 82.2502 115.218 81.9372C114.884 81.6241 114.718 81.2188 114.718 80.7212C114.718 80.3017 114.831 79.9346 115.058 79.6199C115.284 79.3053 115.592 79.0611 115.981 78.8875C116.37 78.7138 116.809 78.627 117.297 78.627C117.795 78.627 118.234 78.7141 118.612 78.8883C118.991 79.0626 119.289 79.3012 119.506 79.6043C119.722 79.9074 119.836 80.2525 119.848 80.6396H118.762C118.724 80.3059 118.57 80.0478 118.298 79.8652C118.027 79.6827 117.685 79.5914 117.273 79.5914C116.98 79.5914 116.725 79.6377 116.508 79.7303C116.292 79.8228 116.124 79.9495 116.006 80.1102C115.888 80.2709 115.829 80.4544 115.829 80.6605C115.829 80.8893 115.9 81.0748 116.042 81.2171C116.183 81.3594 116.356 81.4716 116.559 81.5538C116.763 81.636 116.957 81.7015 117.142 81.7503L117.846 81.9373C118.078 81.9952 118.317 82.0742 118.562 82.1741C118.808 82.2741 119.035 82.4029 119.244 82.5607C119.454 82.7186 119.623 82.914 119.752 83.147C119.881 83.3801 119.945 83.6603 119.945 83.9877C119.945 84.3995 119.839 84.7662 119.627 85.0878C119.415 85.4095 119.108 85.6619 118.706 85.8451C118.304 86.0283 117.818 86.1199 117.248 86.1199ZM122.182 86L120.209 78.7246H121.383L122.433 82.8922C122.497 83.1509 122.557 83.419 122.613 83.6964C122.669 83.9738 122.723 84.2537 122.776 84.5362C122.829 84.8186 122.88 85.1015 122.928 85.3849H122.765C122.818 85.1015 122.871 84.8186 122.925 84.5362C122.978 84.2537 123.035 83.9738 123.095 83.6964C123.155 83.419 123.218 83.1509 123.284 82.8922L124.364 78.7246H125.584L126.657 82.8922C126.725 83.1509 126.789 83.419 126.847 83.6964C126.906 83.9738 126.964 84.2537 127.02 84.5362C127.077 84.8186 127.131 85.1015 127.184 85.3849H127.008C127.06 85.1015 127.111 84.8186 127.164 84.5362C127.217 84.2537 127.273 83.9738 127.331 83.6964C127.39 83.419 127.45 83.1509 127.511 82.8922L128.558 78.7246H129.74L127.759 86H126.472L125.317 81.6868C125.228 81.3492 125.146 80.9823 125.072 80.5861C124.997 80.1898 124.921 79.753 124.844 79.2755H125.097C125.016 79.7316 124.942 80.1535 124.875 80.5412C124.808 80.9288 124.725 81.3107 124.625 81.6868L123.473 86H122.182ZM133.244 86.0977C132.615 86.0977 132.053 85.9484 131.558 85.65C131.062 85.3515 130.671 84.9234 130.386 84.3657C130.1 83.808 129.957 83.1419 129.957 82.3672C129.957 81.5887 130.1 80.9204 130.386 80.3625C130.671 79.8045 131.062 79.3757 131.558 79.0762C132.053 78.7767 132.615 78.627 133.244 78.627C133.873 78.627 134.434 78.7767 134.928 79.0762C135.422 79.3757 135.811 79.8045 136.096 80.3625C136.38 80.9204 136.523 81.5887 136.523 82.3672C136.523 83.1424 136.38 83.8089 136.096 84.3666C135.811 84.9243 135.422 85.3522 134.928 85.6504C134.434 85.9486 133.873 86.0977 133.244 86.0977ZM133.244 85.0836C133.658 85.0836 134.029 84.9796 134.356 84.7716C134.683 84.5636 134.941 84.2571 135.131 83.8522C135.321 83.4473 135.416 82.9523 135.416 82.3672C135.416 81.7762 135.321 81.2781 135.131 80.8728C134.941 80.4676 134.683 80.161 134.356 79.953C134.029 79.745 133.658 79.641 133.244 79.641C132.828 79.641 132.455 79.7457 132.127 79.955C131.798 80.1644 131.539 80.4716 131.349 80.8769C131.158 81.2821 131.063 81.7788 131.063 82.3672C131.063 82.9523 131.158 83.4466 131.349 83.8502C131.539 84.2538 131.798 84.5602 132.127 84.7696C132.455 84.9789 132.828 85.0836 133.244 85.0836ZM137.378 86V78.7246H139.984C140.546 78.7246 141.014 78.8217 141.387 79.016C141.76 79.2103 142.04 79.4795 142.226 79.8236C142.412 80.1677 142.505 80.5635 142.505 81.0111C142.505 81.4599 142.412 81.8526 142.225 82.1894C142.038 82.5261 141.757 82.7876 141.383 82.9739C141.009 83.1602 140.54 83.2533 139.976 83.2533H138.017V82.3007H139.868C140.225 82.3007 140.514 82.2494 140.735 82.1467C140.955 82.0441 141.118 81.8966 141.222 81.7042C141.326 81.5119 141.378 81.2809 141.378 81.0111C141.378 80.7361 141.326 80.4994 141.222 80.3011C141.118 80.1028 140.955 79.9494 140.733 79.8409C140.511 79.7323 140.22 79.678 139.86 79.678H138.494V86H137.378ZM141.514 86L139.752 82.7122H140.987L142.781 86H141.514ZM145.724 86H143.924V85.025H145.662C146.213 85.025 146.671 84.922 147.035 84.716C147.4 84.5099 147.674 84.2078 147.855 83.8095C148.037 83.4112 148.127 82.9251 148.127 82.3512C148.127 81.782 148.037 81.3002 147.856 80.906C147.676 80.5117 147.407 80.2121 147.052 80.0071C146.697 79.8021 146.254 79.6996 145.723 79.6996H143.887V78.7246H145.795C146.511 78.7246 147.125 78.8696 147.635 79.1596C148.145 79.4496 148.537 79.8658 148.811 80.4081C149.084 80.9503 149.221 81.598 149.221 82.3512C149.221 83.109 149.084 83.7605 148.809 84.3054C148.535 84.8504 148.136 85.269 147.615 85.5614C147.093 85.8538 146.463 86 145.724 86ZM144.473 78.7246V86H143.358V78.7246H144.473Z" fill="#94A3B8"/>
<path d="M273.213 85.1625L277.45 80.925L276.381 79.8562L273.213 83.025L271.638 81.45L270.569 82.5188L273.213 85.1625ZM274 90C272.262 89.5625 270.828 88.5656 269.697 87.0094C268.566 85.4531 268 83.725 268 81.825V77.25L274 75L280 77.25V81.825C280 83.725 279.434 85.4531 278.303 87.0094C277.172 88.5656 275.738 89.5625 274 90ZM274 88.425C275.3 88.0125 276.375 87.1875 277.225 85.95C278.075 84.7125 278.5 83.3375 278.5 81.825V78.2812L274 76.5938L269.5 78.2812V81.825C269.5 83.3375 269.925 84.7125 270.775 85.95C271.625 87.1875 272.7 88.0125 274 88.425Z" fill="#10B981"/>
<path d="M48.4105 111.802V108.279H48.854L52.4251 104.082H55.8105L51.0939 109.558H50.4029L48.4105 111.802ZM45.7528 115V100.449H48.6814V115H45.7528ZM52.5674 115L49.2948 110.212L51.2515 108.133L56.0204 115H52.5674ZM63.3171 115.216C62.3602 115.216 61.5129 115.028 60.7752 114.652C60.0375 114.275 59.4442 113.764 58.9954 113.118C58.5465 112.473 58.2723 111.748 58.1727 110.945H61.1162C61.2343 111.467 61.486 111.881 61.8714 112.188C62.2568 112.494 62.7387 112.648 63.3171 112.648C63.9573 112.648 64.496 112.458 64.9332 112.078C65.3704 111.698 65.7013 111.158 65.9259 110.457C66.1506 109.757 66.2629 108.927 66.2629 107.966H66.1669C65.9486 108.387 65.6546 108.751 65.2847 109.057C64.9149 109.362 64.4938 109.597 64.0214 109.762C63.5491 109.927 63.0467 110.009 62.5143 110.009C61.6564 110.009 60.8879 109.807 60.2088 109.402C59.5298 108.998 58.9959 108.44 58.6071 107.73C58.2183 107.02 58.0239 106.212 58.0239 105.305C58.0239 104.323 58.2518 103.449 58.7077 102.682C59.1635 101.916 59.7979 101.314 60.6106 100.876C61.4234 100.438 62.3665 100.224 63.4399 100.233C64.176 100.236 64.8866 100.362 65.5717 100.611C66.2568 100.86 66.8705 101.261 67.4127 101.812C67.955 102.363 68.3855 103.095 68.7043 104.006C69.0232 104.918 69.1826 106.039 69.1826 107.37C69.1826 108.599 69.0456 109.698 68.7715 110.666C68.4975 111.634 68.1039 112.457 67.5907 113.135C67.0774 113.813 66.4595 114.329 65.7369 114.684C65.0143 115.039 64.2077 115.216 63.3171 115.216ZM63.4206 107.819C63.7824 107.819 64.1176 107.75 64.4262 107.613C64.7347 107.476 65.0032 107.287 65.2316 107.048C65.4601 106.809 65.639 106.532 65.7683 106.219C65.8977 105.905 65.9624 105.569 65.9624 105.209C65.9624 104.737 65.8536 104.305 65.6362 103.913C65.4187 103.522 65.1212 103.208 64.7436 102.972C64.366 102.736 63.934 102.618 63.4476 102.618C62.9706 102.618 62.5416 102.733 62.1605 102.963C61.7794 103.193 61.4784 103.505 61.2577 103.9C61.037 104.295 60.9267 104.737 60.9267 105.227C60.9267 105.714 61.0348 106.154 61.251 106.545C61.4672 106.937 61.7628 107.247 62.1376 107.476C62.5125 107.704 62.9401 107.819 63.4206 107.819ZM77.8327 115L80.2245 100.449H82.4427L80.0493 115H77.8327ZM71.311 111.361L71.687 109.147H83.0179L82.6419 111.361H71.311ZM72.7245 115L75.1073 100.449H77.3255L74.9427 115H72.7245ZM72.1493 106.311L72.5253 104.088H83.8472L83.4802 106.311H72.1493ZM89.3963 115L85.3794 104.082H88.4898L90.3236 109.75C90.5499 110.455 90.7457 111.17 90.9112 111.894C91.0767 112.617 91.2469 113.365 91.4216 114.138H90.7929C90.9641 113.365 91.1316 112.618 91.2953 111.896C91.4591 111.175 91.6508 110.459 91.8706 109.75L93.6833 104.082H96.7621L92.7345 115H89.3963ZM99.4293 115V100.449H102.413V112.526H108.688V115H99.4293ZM111.632 115V112.855L116.787 108.017C117.229 107.586 117.603 107.197 117.908 106.851C118.214 106.505 118.446 106.165 118.605 105.829C118.765 105.494 118.845 105.13 118.845 104.737C118.845 104.303 118.746 103.929 118.549 103.616C118.352 103.303 118.085 103.062 117.747 102.894C117.409 102.725 117.021 102.64 116.585 102.64C116.133 102.64 115.739 102.732 115.403 102.914C115.066 103.097 114.806 103.357 114.621 103.695C114.437 104.034 114.345 104.439 114.345 104.912H111.502C111.502 103.965 111.717 103.143 112.148 102.446C112.578 101.75 113.178 101.21 113.946 100.828C114.714 100.445 115.601 100.254 116.607 100.254C117.635 100.254 118.532 100.437 119.3 100.804C120.068 101.17 120.665 101.676 121.091 102.322C121.518 102.967 121.731 103.709 121.731 104.548C121.731 105.093 121.625 105.629 121.414 106.155C121.202 106.681 120.825 107.271 120.283 107.923C119.741 108.576 118.972 109.36 117.975 110.275L115.772 112.445V112.552H121.928V115H111.632ZM126.034 110.391L125.822 100.449H128.974L128.758 110.391H126.034ZM127.403 115.185C126.894 115.185 126.478 115.032 126.154 114.725C125.83 114.419 125.668 114.022 125.668 113.534C125.668 113.042 125.83 112.644 126.154 112.337C126.478 112.031 126.894 111.878 127.403 111.878C127.915 111.878 128.331 112.031 128.652 112.337C128.973 112.644 129.133 113.042 129.133 113.534C129.133 114.022 128.973 114.419 128.652 114.725C128.331 115.032 127.915 115.185 127.403 115.185ZM133.026 119.082V104.082H135.907V105.92H136.049C136.184 105.629 136.375 105.332 136.625 105.027C136.874 104.722 137.205 104.465 137.616 104.257C138.028 104.049 138.542 103.945 139.161 103.945C139.97 103.945 140.709 104.154 141.378 104.571C142.047 104.988 142.583 105.613 142.985 106.445C143.388 107.278 143.589 108.316 143.589 109.56C143.589 110.771 143.394 111.795 143.003 112.631C142.613 113.467 142.082 114.101 141.412 114.533C140.741 114.965 139.985 115.182 139.144 115.182C138.552 115.182 138.051 115.081 137.64 114.881C137.229 114.68 136.896 114.432 136.64 114.136C136.384 113.84 136.187 113.546 136.049 113.253H135.955V119.082H133.026ZM138.242 112.834C138.754 112.834 139.182 112.694 139.529 112.414C139.875 112.134 140.138 111.747 140.316 111.252C140.495 110.756 140.584 110.189 140.584 109.551C140.584 108.912 140.495 108.347 140.318 107.858C140.142 107.369 139.88 106.986 139.533 106.709C139.187 106.431 138.757 106.293 138.242 106.293C137.74 106.293 137.314 106.427 136.964 106.695C136.614 106.963 136.348 107.341 136.166 107.827C135.984 108.313 135.893 108.888 135.893 109.551C135.893 110.207 135.985 110.781 136.168 111.273C136.352 111.765 136.619 112.148 136.971 112.422C137.323 112.697 137.746 112.834 138.242 112.834ZM146.508 115V113.217L152.411 104.879C152.774 104.372 153.173 103.864 153.609 103.354C154.045 102.844 154.485 102.338 154.93 101.834L155.156 102.798C154.504 102.858 153.851 102.894 153.196 102.906C152.541 102.917 151.888 102.923 151.237 102.923H146.482V100.449H157.549V102.241L151.754 110.429C151.372 110.961 150.953 111.494 150.5 112.026C150.046 112.559 149.588 113.088 149.127 113.615L148.901 112.651C149.584 112.591 150.266 112.555 150.946 112.543C151.626 112.532 152.306 112.526 152.986 112.526H157.574V115H146.508ZM166.171 115.195C165.086 115.195 164.122 115.017 163.281 114.66C162.439 114.303 161.779 113.815 161.301 113.196C160.823 112.576 160.584 111.875 160.584 111.091C160.584 110.486 160.722 109.928 160.998 109.418C161.273 108.908 161.648 108.483 162.121 108.142C162.595 107.801 163.127 107.581 163.716 107.484V107.395C162.943 107.23 162.316 106.848 161.834 106.248C161.353 105.647 161.112 104.953 161.112 104.163C161.112 103.411 161.33 102.74 161.767 102.152C162.204 101.564 162.803 101.101 163.565 100.762C164.327 100.423 165.196 100.254 166.171 100.254C167.143 100.254 168.011 100.423 168.775 100.762C169.539 101.101 170.14 101.565 170.578 102.155C171.016 102.745 171.235 103.414 171.235 104.163C171.235 104.956 170.992 105.652 170.505 106.25C170.019 106.849 169.397 107.23 168.64 107.395V107.484C169.22 107.581 169.747 107.801 170.221 108.142C170.694 108.483 171.071 108.908 171.351 109.418C171.632 109.928 171.772 110.486 171.772 111.091C171.772 111.875 171.531 112.576 171.05 113.196C170.57 113.815 169.907 114.303 169.064 114.66C168.221 115.017 167.256 115.195 166.171 115.195ZM166.171 112.988C166.671 112.988 167.107 112.898 167.479 112.718C167.851 112.538 168.141 112.288 168.349 111.967C168.557 111.645 168.661 111.275 168.661 110.856C168.661 110.428 168.553 110.05 168.338 109.721C168.123 109.391 167.827 109.132 167.452 108.942C167.077 108.752 166.65 108.656 166.171 108.656C165.692 108.656 165.266 108.751 164.89 108.939C164.515 109.127 164.22 109.386 164.005 109.715C163.789 110.044 163.682 110.424 163.682 110.856C163.682 111.275 163.785 111.645 163.991 111.964C164.198 112.283 164.488 112.534 164.864 112.715C165.239 112.897 165.674 112.988 166.171 112.988ZM166.171 106.466C166.586 106.466 166.955 106.382 167.277 106.213C167.598 106.045 167.853 105.811 168.04 105.51C168.227 105.209 168.321 104.866 168.321 104.479C168.321 104.089 168.229 103.749 168.047 103.458C167.864 103.166 167.611 102.939 167.288 102.776C166.965 102.612 166.592 102.531 166.171 102.531C165.749 102.531 165.377 102.612 165.054 102.776C164.731 102.939 164.479 103.166 164.298 103.458C164.117 103.749 164.027 104.089 164.027 104.479C164.027 104.866 164.118 105.208 164.3 105.507C164.483 105.806 164.736 106.041 165.061 106.211C165.385 106.381 165.755 106.466 166.171 106.466Z" fill="#4F46E5"/>
<path d="M272 116C269.767 116 267.875 115.225 266.325 113.675C264.775 112.125 264 110.233 264 108C264 105.767 264.775 103.875 266.325 102.325C267.875 100.775 269.767 100 272 100C273.15 100 274.25 100.237 275.3 100.712C276.35 101.188 277.25 101.867 278 102.75V100H280V107H273V105H277.2C276.667 104.067 275.938 103.333 275.012 102.8C274.087 102.267 273.083 102 272 102C270.333 102 268.917 102.583 267.75 103.75C266.583 104.917 266 106.333 266 108C266 109.667 266.583 111.083 267.75 112.25C268.917 113.417 270.333 114 272 114C273.283 114 274.442 113.633 275.475 112.9C276.508 112.167 277.233 111.2 277.65 110H279.75C279.283 111.767 278.333 113.208 276.9 114.325C275.467 115.442 273.833 116 272 116Z" fill="#94A3B8"/>
<path d="M28.1289 178V167.814H29.691V176.657H34.2995V178H28.1289ZM39.223 178.159C38.4708 178.159 37.822 177.997 37.2767 177.671C36.7314 177.346 36.3118 176.889 36.0179 176.302C35.724 175.714 35.577 175.024 35.577 174.233C35.577 173.448 35.7214 172.758 36.0101 172.162C36.2988 171.566 36.7073 171.101 37.2356 170.765C37.7639 170.43 38.3831 170.262 39.093 170.262C39.5298 170.262 39.9518 170.333 40.3592 170.476C40.7665 170.618 41.1318 170.843 41.4552 171.148C41.7785 171.454 42.0346 171.851 42.2236 172.338C42.4125 172.824 42.507 173.412 42.507 174.101V174.635H36.4135V173.512H41.732L41.0298 173.883C41.0298 173.416 40.9571 173.004 40.8118 172.646C40.6664 172.288 40.4507 172.009 40.1646 171.808C39.8785 171.606 39.5229 171.506 39.0979 171.506C38.6729 171.506 38.3099 171.608 38.0088 171.813C37.7078 172.018 37.478 172.288 37.3196 172.624C37.1612 172.959 37.082 173.324 37.082 173.72V174.483C37.082 175.007 37.172 175.451 37.352 175.814C37.5319 176.177 37.7844 176.451 38.1092 176.637C38.4341 176.822 38.8105 176.915 39.2385 176.915C39.5187 176.915 39.7735 176.875 40.0028 176.795C40.2321 176.714 40.4294 176.593 40.5949 176.432C40.7603 176.27 40.8872 176.07 40.9755 175.832L42.3864 176.165C42.2663 176.561 42.0613 176.908 41.7713 177.208C41.4814 177.507 41.121 177.741 40.69 177.908C40.2591 178.075 39.7701 178.159 39.223 178.159ZM45.6562 173.472V178H44.1526V170.357H45.5862L45.6016 172.228H45.4467C45.6685 171.545 45.991 171.046 46.4143 170.733C46.8376 170.419 47.3497 170.262 47.9506 170.262C48.4705 170.262 48.9252 170.371 49.3146 170.589C49.704 170.807 50.0071 171.13 50.224 171.557C50.4409 171.984 50.5493 172.513 50.5493 173.144V178H49.0457V173.331C49.0457 172.781 48.9024 172.35 48.6157 172.039C48.329 171.727 47.9358 171.571 47.4363 171.571C47.0971 171.571 46.793 171.645 46.5239 171.794C46.2548 171.942 46.0429 172.158 45.8882 172.44C45.7335 172.723 45.6562 173.067 45.6562 173.472ZM55.7708 181.021C55.1819 181.021 54.6712 180.947 54.2386 180.798C53.8061 180.648 53.4492 180.448 53.168 180.195C52.8868 179.943 52.6742 179.664 52.5303 179.357L53.783 178.766C53.8776 178.91 54.0011 179.064 54.1535 179.228C54.3058 179.391 54.511 179.529 54.7691 179.641C55.0272 179.753 55.3603 179.809 55.7683 179.809C56.3495 179.809 56.8214 179.672 57.184 179.398C57.5466 179.123 57.7279 178.692 57.7279 178.104V176.615H57.5969C57.5087 176.78 57.3833 176.962 57.2208 177.159C57.0582 177.356 56.8322 177.526 56.5428 177.668C56.2533 177.811 55.8756 177.882 55.4097 177.882C54.8113 177.882 54.2712 177.74 53.7893 177.458C53.3074 177.175 52.9258 176.756 52.6445 176.202C52.3632 175.648 52.2225 174.964 52.2225 174.152C52.2225 173.339 52.3625 172.642 52.6426 172.062C52.9226 171.482 53.3045 171.037 53.7883 170.727C54.272 170.417 54.8192 170.262 55.4297 170.262C55.9014 170.262 56.2835 170.34 56.5763 170.496C56.869 170.652 57.0986 170.835 57.2651 171.047C57.4315 171.258 57.5593 171.443 57.6483 171.602H57.7535V170.357H59.2242V178.111C59.2242 178.778 59.0726 179.327 58.7694 179.757C58.4662 180.188 58.054 180.506 57.5327 180.712C57.0115 180.918 56.4242 181.021 55.7708 181.021ZM55.76 176.633C56.1871 176.633 56.5476 176.534 56.8416 176.335C57.1356 176.136 57.3587 175.849 57.5109 175.475C57.663 175.1 57.7391 174.652 57.7391 174.129C57.7391 173.617 57.664 173.167 57.5137 172.78C57.3634 172.393 57.1412 172.09 56.8472 171.871C56.5532 171.653 56.1908 171.543 55.76 171.543C55.3187 171.543 54.9495 171.658 54.6521 171.888C54.3548 172.118 54.1314 172.427 53.9819 172.816C53.8325 173.205 53.7577 173.643 53.7577 174.129C53.7577 174.627 53.8334 175.063 53.9847 175.44C54.1361 175.816 54.3604 176.109 54.6577 176.319C54.9551 176.528 55.3225 176.633 55.76 176.633ZM64.5204 170.357V171.58H60.3748V170.357H64.5204ZM61.4912 168.539H62.9949V175.933C62.9949 176.242 63.0592 176.468 63.188 176.611C63.3167 176.754 63.5302 176.826 63.8283 176.826C63.9066 176.826 64.0094 176.817 64.1367 176.798C64.2641 176.779 64.3733 176.761 64.4646 176.743L64.731 177.948C64.5698 178.001 64.3978 178.039 64.2151 178.063C64.0324 178.087 63.8535 178.099 63.6785 178.099C62.9824 178.099 62.4438 177.921 62.0628 177.565C61.6818 177.208 61.4912 176.706 61.4912 176.057V168.539ZM67.5312 173.472V178H66.0276V167.814H67.5189V172.228H67.3217C67.5435 171.545 67.866 171.046 68.2893 170.733C68.7126 170.419 69.2247 170.262 69.8256 170.262C70.3455 170.262 70.8011 170.371 71.1924 170.589C71.5837 170.807 71.8877 171.13 72.1046 171.557C72.3215 171.984 72.43 172.513 72.43 173.144V178H70.9207V173.331C70.9207 172.781 70.7774 172.35 70.4907 172.039C70.204 171.727 69.8108 171.571 69.3113 171.571C68.9721 171.571 68.668 171.645 68.3989 171.794C68.1298 171.942 67.9179 172.158 67.7632 172.44C67.6085 172.723 67.5312 173.067 67.5312 173.472Z" fill="#475569"/>
<path d="M287.26 167.814V178H285.181V169.653H285.112L282.777 171.304V169.393L285.029 167.814H287.26ZM289.025 178V176.499L292.634 173.112C292.943 172.81 293.205 172.538 293.419 172.296C293.632 172.054 293.795 171.815 293.907 171.58C294.018 171.346 294.074 171.091 294.074 170.816C294.074 170.512 294.005 170.25 293.867 170.031C293.729 169.812 293.542 169.644 293.305 169.525C293.069 169.407 292.798 169.348 292.492 169.348C292.176 169.348 291.9 169.412 291.665 169.54C291.429 169.668 291.247 169.85 291.118 170.087C290.989 170.324 290.924 170.608 290.924 170.939H288.934C288.934 170.276 289.085 169.7 289.386 169.212C289.688 168.725 290.107 168.347 290.645 168.079C291.182 167.812 291.803 167.678 292.508 167.678C293.227 167.678 293.855 167.806 294.393 168.063C294.93 168.319 295.348 168.673 295.647 169.125C295.945 169.577 296.094 170.097 296.094 170.684C296.094 171.065 296.02 171.44 295.872 171.809C295.724 172.177 295.46 172.589 295.081 173.046C294.701 173.503 294.163 174.052 293.465 174.692L291.923 176.212V176.286H296.232V178H289.025Z" fill="#4F46E5"/>
<rect x="27" y="199" width="270" height="6" rx="3" fill="#F1F5F9"/>
<rect x="27" y="199" width="180" height="6" rx="3" fill="#4F46E5"/>
<g filter="url(#filter1_d_1_318)">
<rect x="199" y="194" width="16" height="16" rx="8" fill="white"/>
<rect x="200" y="195" width="14" height="14" rx="7" stroke="#4F46E5" stroke-width="2"/>
</g>
<path d="M31.5477 246.168C30.7869 246.168 30.1258 246.047 29.5645 245.806C29.0031 245.564 28.5644 245.219 28.2484 244.772C27.9324 244.324 27.7572 243.79 27.7227 243.169H29.2883C29.3215 243.539 29.4421 243.845 29.6502 244.087C29.8584 244.329 30.1281 244.51 30.4595 244.628C30.791 244.747 31.1512 244.806 31.5403 244.806C31.9711 244.806 32.3549 244.738 32.6918 244.602C33.0287 244.465 33.2943 244.273 33.4884 244.026C33.6825 243.778 33.7795 243.492 33.7795 243.166C33.7795 242.869 33.695 242.626 33.526 242.437C33.357 242.248 33.1273 242.09 32.8367 241.965C32.5461 241.839 32.2173 241.728 31.8503 241.632L30.6567 241.307C29.8224 241.082 29.1719 240.75 28.7051 240.312C28.2383 239.874 28.0049 239.306 28.0049 238.61C28.0049 238.022 28.1635 237.508 28.4808 237.068C28.7981 236.627 29.2291 236.286 29.7737 236.042C30.3183 235.799 30.9323 235.678 31.6156 235.678C32.3135 235.678 32.9274 235.8 33.4576 236.044C33.9877 236.288 34.4045 236.622 34.7079 237.046C35.0114 237.47 35.171 237.953 35.1867 238.496H33.6667C33.614 238.028 33.3978 237.667 33.0179 237.411C32.6381 237.156 32.1594 237.028 31.582 237.028C31.1724 237.028 30.8157 237.093 30.512 237.222C30.2082 237.352 29.9738 237.529 29.8088 237.754C29.6437 237.979 29.5612 238.236 29.5612 238.525C29.5612 238.845 29.6602 239.105 29.8583 239.304C30.0563 239.503 30.2979 239.66 30.5829 239.775C30.8679 239.89 31.14 239.982 31.3992 240.05L32.3845 240.312C32.7097 240.393 33.044 240.504 33.3875 240.644C33.731 240.784 34.0493 240.964 34.3423 241.185C34.6353 241.406 34.8721 241.68 35.0526 242.006C35.2332 242.332 35.3235 242.724 35.3235 243.183C35.3235 243.759 35.1751 244.273 34.8783 244.723C34.5815 245.173 34.1517 245.527 33.5888 245.783C33.0258 246.04 32.3455 246.168 31.5477 246.168ZM36.9566 248.748L37.3227 247.521L37.4932 247.567C37.7529 247.633 37.9865 247.651 38.194 247.62C38.4015 247.59 38.5816 247.493 38.7342 247.331C38.8868 247.168 39.0086 246.923 39.0996 246.596L39.2655 246.035L36.3625 238.357H37.986L39.4986 242.701C39.6668 243.184 39.8067 243.664 39.9182 244.141C40.0297 244.618 40.1504 245.093 40.2801 245.566H39.8203C39.95 245.093 40.0754 244.616 40.1966 244.137C40.3178 243.658 40.4618 243.179 40.6288 242.701L42.171 238.357H43.7816L40.462 247.062C40.3071 247.469 40.1171 247.81 39.892 248.085C39.6669 248.36 39.3987 248.567 39.0874 248.705C38.7761 248.843 38.415 248.912 38.0041 248.912C37.7681 248.912 37.5573 248.895 37.3715 248.861C37.1857 248.826 37.0474 248.789 36.9566 248.748ZM45.109 246V238.357H46.5415L46.5791 240.13H46.4662C46.5743 239.697 46.7421 239.34 46.9698 239.061C47.1974 238.782 47.464 238.573 47.7695 238.435C48.075 238.297 48.3939 238.228 48.7261 238.228C49.2797 238.228 49.7274 238.4 50.0695 238.744C50.4115 239.089 50.6425 239.568 50.7624 240.181H50.5737C50.6723 239.762 50.8452 239.407 51.0925 239.117C51.3397 238.826 51.6366 238.605 51.9832 238.454C52.3297 238.303 52.7033 238.228 53.104 238.228C53.5543 238.228 53.9621 238.326 54.3275 238.521C54.6929 238.717 54.983 239.008 55.1978 239.395C55.4127 239.782 55.5201 240.266 55.5201 240.846V246H54.0165V240.999C54.0165 240.487 53.8742 240.117 53.5898 239.889C53.3053 239.66 52.9695 239.546 52.5823 239.546C52.2684 239.546 51.9971 239.613 51.7684 239.746C51.5397 239.879 51.3637 240.063 51.2403 240.297C51.1169 240.531 51.0553 240.8 51.0553 241.106V246H49.5738V240.898C49.5738 240.491 49.4428 240.164 49.1807 239.917C48.9187 239.67 48.5847 239.546 48.1788 239.546C47.9015 239.546 47.6431 239.611 47.4036 239.74C47.1641 239.87 46.9724 240.061 46.8285 240.314C46.6845 240.566 46.6126 240.879 46.6126 241.251V246H45.109ZM61.3362 246.152C60.8761 246.152 60.4994 246.073 60.2061 245.915C59.9127 245.757 59.683 245.573 59.5169 245.363C59.3509 245.153 59.2229 244.966 59.133 244.804H59.0086V246H57.5435V235.814H59.0472V239.602H59.133C59.2221 239.443 59.3473 239.259 59.5089 239.05C59.6704 238.84 59.8963 238.656 60.1868 238.499C60.4772 238.341 60.8601 238.262 61.3356 238.262C61.9498 238.262 62.4967 238.417 62.9763 238.727C63.4559 239.037 63.8346 239.486 64.1124 240.073C64.3902 240.661 64.529 241.369 64.529 242.197C64.529 243.02 64.3923 243.727 64.1189 244.317C63.8454 244.907 63.4687 245.36 62.9887 245.677C62.5087 245.993 61.9579 246.152 61.3362 246.152ZM61.0028 244.87C61.4411 244.87 61.8078 244.752 62.1028 244.515C62.3979 244.278 62.6201 243.957 62.7696 243.551C62.9191 243.145 62.9938 242.69 62.9938 242.186C62.9938 241.684 62.92 241.234 62.7724 240.836C62.6248 240.438 62.4035 240.123 62.1084 239.891C61.8134 239.659 61.4449 239.543 61.0028 239.543C60.5728 239.543 60.2105 239.653 59.9161 239.874C59.6217 240.095 59.3994 240.402 59.2491 240.797C59.0988 241.191 59.0236 241.654 59.0236 242.186C59.0236 242.715 59.0997 243.182 59.2519 243.585C59.4041 243.989 59.6283 244.304 59.9246 244.53C60.2208 244.757 60.5802 244.87 61.0028 244.87ZM69.4115 246.159C68.6942 246.159 68.0683 245.995 67.5338 245.666C66.9993 245.338 66.5843 244.878 66.289 244.285C65.9936 243.693 65.8459 243.005 65.8459 242.222C65.8459 241.427 65.9936 240.732 66.289 240.138C66.5843 239.544 66.9993 239.083 67.5338 238.755C68.0683 238.426 68.6942 238.262 69.4115 238.262C70.1326 238.262 70.7609 238.426 71.2965 238.755C71.8321 239.083 72.2475 239.544 72.5429 240.138C72.8382 240.732 72.9859 241.427 72.9859 242.222C72.9859 243.005 72.8382 243.693 72.5429 244.285C72.2475 244.878 71.8321 245.338 71.2965 245.666C70.7609 245.995 70.1326 246.159 69.4115 246.159ZM69.4115 244.888C69.8765 244.888 70.2607 244.766 70.5643 244.522C70.8679 244.278 71.0932 243.954 71.2404 243.549C71.3876 243.145 71.4612 242.702 71.4612 242.219C71.4612 241.732 71.3876 241.285 71.2404 240.878C71.0932 240.471 70.8679 240.145 70.5643 239.901C70.2607 239.656 69.8765 239.533 69.4115 239.533C68.9495 239.533 68.5684 239.656 68.2682 239.901C67.9679 240.145 67.7442 240.47 67.597 240.876C67.4498 241.281 67.3762 241.728 67.3762 242.219C67.3762 242.702 67.4498 243.145 67.597 243.549C67.7442 243.954 67.9679 244.278 68.2682 244.522C68.5684 244.766 68.9495 244.888 69.4115 244.888ZM76.1575 235.814V246H74.6539V235.814H76.1575ZM80.9253 246.159C80.3709 246.159 79.8786 246.079 79.4486 245.918C79.0186 245.758 78.6655 245.522 78.3893 245.21C78.113 244.898 77.9298 244.518 77.8394 244.069L79.2557 243.772C79.3618 244.17 79.5575 244.464 79.843 244.654C80.1284 244.844 80.4928 244.939 80.9362 244.939C81.4219 244.939 81.8081 244.838 82.0949 244.636C82.3817 244.435 82.5251 244.191 82.5251 243.905C82.5251 243.662 82.4367 243.461 82.2599 243.302C82.0831 243.142 81.8126 243.022 81.4483 242.941L80.162 242.65C79.4545 242.49 78.9277 242.235 78.5814 241.886C78.2351 241.536 78.062 241.086 78.062 240.537C78.062 240.082 78.1885 239.684 78.4416 239.343C78.6947 239.002 79.0433 238.737 79.4874 238.547C79.9316 238.357 80.4416 238.262 81.0176 238.262C81.5688 238.262 82.0403 238.342 82.4322 238.502C82.824 238.663 83.142 238.886 83.3861 239.171C83.6302 239.456 83.8059 239.788 83.9133 240.167L82.564 240.465C82.4674 240.196 82.3011 239.959 82.0651 239.755C81.829 239.551 81.485 239.449 81.033 239.449C80.6167 239.449 80.2695 239.543 79.9914 239.73C79.7134 239.917 79.5744 240.155 79.5744 240.446C79.5744 240.698 79.6673 240.903 79.8531 241.061C80.0389 241.22 80.3407 241.346 80.7586 241.441L81.9865 241.715C82.6948 241.874 83.22 242.125 83.5621 242.468C83.9042 242.81 84.0753 243.248 84.0753 243.779C84.0753 244.244 83.9423 244.655 83.6762 245.012C83.4102 245.37 83.0404 245.651 82.5668 245.854C82.0933 246.057 81.5461 246.159 80.9253 246.159ZM89.822 241.208C89.822 240.461 89.8981 239.68 90.0504 238.866C90.2027 238.051 90.411 237.267 90.6753 236.514C90.9396 235.761 91.2431 235.106 91.5857 234.55H93.017C92.6743 235.262 92.3777 236.004 92.1272 236.777C91.8766 237.549 91.6849 238.312 91.5518 239.068C91.4188 239.823 91.3523 240.536 91.3523 241.208C91.3523 241.812 91.4104 242.421 91.5267 243.035C91.6429 243.649 91.824 244.301 92.07 244.991C92.316 245.681 92.6316 246.439 93.017 247.265H91.5857C91.0069 246.286 90.5683 245.283 90.2698 244.257C89.9713 243.23 89.822 242.214 89.822 241.208ZM95.0031 242.742L94.8989 235.814H96.5642L96.4544 242.742H95.0031ZM95.7371 246.102C95.4483 246.102 95.2061 246.007 95.0105 245.815C94.8149 245.624 94.7171 245.387 94.7171 245.106C94.7171 244.822 94.8149 244.584 95.0105 244.392C95.2061 244.201 95.4483 244.105 95.7371 244.105C96.0268 244.105 96.2683 244.201 96.4616 244.392C96.6549 244.584 96.7516 244.822 96.7516 245.106C96.7516 245.387 96.6549 245.624 96.4616 245.815C96.2683 246.007 96.0268 246.102 95.7371 246.102ZM105.041 247.256C104.014 247.256 103.103 247.116 102.307 246.835C101.511 246.554 100.84 246.143 100.294 245.602C99.747 245.062 99.3335 244.397 99.0531 243.61C98.7726 242.822 98.6324 241.923 98.6324 240.913C98.6324 239.938 98.7727 239.06 99.0531 238.278C99.3336 237.496 99.7436 236.828 100.283 236.274C100.823 235.72 101.482 235.295 102.262 235C103.041 234.705 103.93 234.557 104.927 234.557C105.882 234.557 106.727 234.707 107.461 235.007C108.195 235.307 108.814 235.717 109.317 236.239C109.821 236.76 110.202 237.357 110.46 238.029C110.719 238.701 110.848 239.408 110.848 240.149C110.848 240.665 110.814 241.168 110.745 241.658C110.677 242.148 110.553 242.591 110.373 242.986C110.194 243.381 109.94 243.696 109.612 243.931C109.284 244.166 108.86 244.283 108.337 244.283C108.081 244.283 107.816 244.246 107.542 244.17C107.269 244.095 107.032 243.973 106.831 243.804C106.63 243.635 106.509 243.412 106.467 243.136H106.412C106.292 243.444 106.07 243.708 105.747 243.926C105.424 244.145 105.002 244.254 104.479 244.254C103.867 244.254 103.353 244.106 102.935 243.81C102.517 243.513 102.201 243.109 101.986 242.596C101.772 242.083 101.664 241.5 101.664 240.845C101.664 240.214 101.787 239.652 102.033 239.159C102.279 238.666 102.619 238.278 103.052 237.995C103.485 237.711 103.981 237.57 104.538 237.57C104.979 237.57 105.351 237.65 105.654 237.81C105.957 237.97 106.172 238.149 106.299 238.347H106.368V237.731H107.559V242.272C107.559 242.528 107.626 242.746 107.761 242.925C107.896 243.104 108.095 243.194 108.36 243.194C108.678 243.194 108.924 243.087 109.098 242.874C109.273 242.66 109.395 242.332 109.465 241.889C109.535 241.445 109.57 240.878 109.57 240.186C109.57 239.587 109.475 239.02 109.285 238.485C109.095 237.949 108.809 237.475 108.426 237.062C108.043 236.649 107.562 236.324 106.981 236.088C106.401 235.852 105.72 235.734 104.94 235.734C104.148 235.734 103.444 235.851 102.829 236.086C102.213 236.321 101.693 236.661 101.267 237.108C100.842 237.555 100.52 238.099 100.3 238.74C100.08 239.381 99.9697 240.108 99.9697 240.921C99.9697 241.745 100.08 242.477 100.301 243.117C100.522 243.757 100.851 244.297 101.288 244.735C101.725 245.174 102.264 245.506 102.904 245.733C103.545 245.959 104.285 246.072 105.125 246.072C105.492 246.072 105.85 246.04 106.196 245.976C106.543 245.912 106.854 245.839 107.131 245.755C107.407 245.672 107.62 245.602 107.77 245.546L108.147 246.656C107.931 246.75 107.655 246.844 107.316 246.936C106.978 247.029 106.611 247.106 106.216 247.166C105.821 247.226 105.429 247.256 105.041 247.256ZM104.576 243.071C104.996 243.071 105.338 242.987 105.6 242.818C105.863 242.649 106.056 242.396 106.18 242.058C106.304 241.721 106.366 241.301 106.366 240.799C106.366 240.288 106.3 239.885 106.167 239.591C106.034 239.296 105.836 239.087 105.573 238.962C105.311 238.838 104.988 238.776 104.604 238.776C104.241 238.776 103.93 238.866 103.673 239.046C103.415 239.227 103.218 239.47 103.081 239.775C102.945 240.08 102.876 240.421 102.876 240.797C102.876 241.204 102.933 241.58 103.048 241.927C103.162 242.273 103.344 242.551 103.594 242.759C103.844 242.967 104.171 243.071 104.576 243.071ZM116.429 246L118.108 235.814H119.314L117.643 246H116.429ZM111.822 243.278L112.023 242.078H119.753L119.552 243.278H111.822ZM112.858 246L114.526 235.814H115.732L114.064 246H112.858ZM112.418 239.748L112.62 238.537H120.339L120.148 239.748H112.418ZM121.148 247.265C121.545 246.42 121.865 245.651 122.109 244.957C122.353 244.263 122.531 243.611 122.643 243.001C122.756 242.391 122.812 241.793 122.812 241.208C122.812 240.536 122.746 239.823 122.613 239.068C122.48 238.312 122.289 237.549 122.041 236.777C121.793 236.004 121.495 235.262 121.148 234.55H122.579C122.921 235.106 123.226 235.761 123.492 236.514C123.758 237.267 123.967 238.052 124.117 238.868C124.267 239.685 124.343 240.465 124.343 241.208C124.343 242.229 124.191 243.253 123.889 244.279C123.587 245.305 123.15 246.301 122.579 247.265H121.148Z" fill="#475569"/>
<rect x="257" y="229" width="40" height="24" rx="12" fill="#4F46E5"/>
<rect x="277" y="233" width="16" height="16" rx="8" fill="white"/>
</g>
<defs>
<filter id="filter0_d_1_318" x="0" y="0" width="324" height="281" filterUnits="userSpaceOnUse" color-interpolation-filters="sRGB">
<feFlood flood-opacity="0" result="BackgroundImageFix"/>
<feColorMatrix in="SourceAlpha" type="matrix" values="0 0 0 0 0 0 0 0 0 0 0 0 0 0 0 0 0 0 127 0" result="hardAlpha"/>
<feOffset dy="1"/>
<feGaussianBlur stdDeviation="1"/>
<feComposite in2="hardAlpha" operator="out"/>
<feColorMatrix type="matrix" values="0 0 0 0 0 0 0 0 0 0 0 0 0 0 0 0 0 0 0.05 0"/>
<feBlend mode="normal" in2="BackgroundImageFix" result="effect1_dropShadow_1_318"/>
<feBlend mode="normal" in="SourceGraphic" in2="effect1_dropShadow_1_318" result="shape"/>
</filter>
<filter id="filter1_d_1_318" x="197" y="193" width="20" height="20" filterUnits="userSpaceOnUse" color-interpolation-filters="sRGB">
<feFlood flood-opacity="0" result="BackgroundImageFix"/>
<feColorMatrix in="SourceAlpha" type="matrix" values="0 0 0 0 0 0 0 0 0 0 0 0 0 0 0 0 0 0 127 0" result="hardAlpha"/>
<feOffset dy="1"/>
<feGaussianBlur stdDeviation="1"/>
<feComposite in2="hardAlpha" operator="out"/>
<feColorMatrix type="matrix" values="0 0 0 0 0 0 0 0 0 0 0 0 0 0 0 0 0 0 0.05 0"/>
<feBlend mode="normal" in2="BackgroundImageFix" result="effect1_dropShadow_1_318"/>
<feBlend mode="normal" in="SourceGraphic" in2="effect1_dropShadow_1_318" result="shape"/>
</filter>
</defs>
</svg>
