<svg width="132" height="132" viewBox="0 0 132 132" fill="none" xmlns="http://www.w3.org/2000/svg">
<rect width="128" height="128" rx="24" fill="#5048E5" fill-opacity="0.05"/>
<path d="M64 74.9615C68.641 70.7478 71.6069 67.813 72.8975 66.157C74.1881 64.501 74.8334 62.8413 74.8334 61.1779C74.8334 59.5595 74.2437 58.1658 73.0644 56.9969C71.8851 55.828 70.479 55.2436 68.8462 55.2436C67.8504 55.2436 66.9253 55.4343 66.0707 55.8157C65.2161 56.1971 64.5259 56.7243 64 57.3974C63.4615 56.7243 62.766 56.1971 61.9135 55.8157C61.0609 55.4343 60.141 55.2436 59.1538 55.2436C57.5385 55.2436 56.1368 55.8269 54.9487 56.9936C53.7607 58.1602 53.1667 59.5542 53.1667 61.1755C53.1667 62.0312 53.2813 62.8193 53.5105 63.5399C53.7397 64.2605 54.244 65.1049 55.0233 66.0732C55.8026 67.0415 56.899 68.2241 58.3125 69.6212C59.726 71.0182 61.6218 72.7984 64 74.9615ZM64 93.8077C57.3034 91.8205 51.7404 87.7639 47.3109 81.6378C42.8814 75.5117 40.6667 68.6111 40.6667 60.9359V42.9102L64 34.1923L87.3334 42.9102V60.9359C87.3334 68.6111 85.1186 75.5117 80.6891 81.6378C76.2596 87.7639 70.6966 91.8205 64 93.8077ZM64 90.2692C69.7778 88.4359 74.5556 84.7692 78.3333 79.2692C82.1111 73.7692 84 67.6581 84 60.9359V45.1859L64 37.75L44 45.1859V60.9359C44 67.6581 45.8889 73.7692 49.6667 79.2692C53.4445 84.7692 58.2222 88.4359 64 90.2692Z" fill="#5048E5"/>
<rect x="105.333" y="99.5" width="26.6667" height="32.5" rx="13.3333" fill="#F8FAFC"/>
<path d="M111.667 128C111.025 128 110.476 127.772 110.019 127.315C109.562 126.858 109.333 126.308 109.333 125.667V114C109.333 113.358 109.562 112.809 110.019 112.352C110.476 111.895 111.025 111.667 111.667 111.667H112.833V109.333C112.833 107.719 113.402 106.344 114.54 105.206C115.677 104.069 117.053 103.5 118.667 103.5C120.281 103.5 121.656 104.069 122.794 105.206C123.931 106.344 124.5 107.719 124.5 109.333V111.667H125.667C126.308 111.667 126.858 111.895 127.315 112.352C127.772 112.809 128 113.358 128 114V125.667C128 126.308 127.772 126.858 127.315 127.315C126.858 127.772 126.308 128 125.667 128H111.667ZM118.667 122.167C119.308 122.167 119.858 121.938 120.315 121.481C120.772 121.024 121 120.475 121 119.833C121 119.192 120.772 118.642 120.315 118.185C119.858 117.728 119.308 117.5 118.667 117.5C118.025 117.5 117.476 117.728 117.019 118.185C116.562 118.642 116.333 119.192 116.333 119.833C116.333 120.475 116.562 121.024 117.019 121.481C117.476 121.938 118.025 122.167 118.667 122.167ZM115.167 111.667H122.167V109.333C122.167 108.361 121.826 107.535 121.146 106.854C120.465 106.174 119.639 105.833 118.667 105.833C117.694 105.833 116.868 106.174 116.188 106.854C115.507 107.535 115.167 108.361 115.167 109.333V111.667Z" fill="#5048E5"/>
</svg>
