<svg width="13" height="16" viewBox="0 0 13 16" fill="none" xmlns="http://www.w3.org/2000/svg">
<path d="M5.57284 10.65L7.74989 8.47298L9.92693 6.29594L8.74159 5.11061L5.57284 8.27936L3.98725 6.70436L2.81251 7.87909L5.57284 10.65ZM6.36034 15.7419C4.51849 15.2845 2.99797 14.2424 1.79878 12.6156C0.599595 10.9887 0 9.18216 0 7.19594V2.37229L6.36034 0L12.7207 2.37229V7.19594C12.7207 9.18216 12.1211 10.9887 10.9219 12.6156C9.72271 14.2424 8.20219 15.2845 6.36034 15.7419ZM6.36034 13.6794C7.61089 13.2245 8.65232 12.3995 9.48466 11.2044C10.317 10.0093 10.7332 8.67476 10.7332 7.20087V3.74758L6.36034 2.11307L1.98753 3.75271V7.19594C1.98753 8.67312 2.40369 10.0093 3.23603 11.2044C4.06837 12.3995 5.1098 13.2245 6.36034 13.6794Z" fill="#5048E5"/>
</svg>
